<svg width="316" height="466" viewBox="0 0 316 466" fill="none" xmlns="http://www.w3.org/2000/svg">
<g clip-path="url(#clip0)">
<path d="M306.831 336.81C305.531 337.528 305.531 338.767 306.831 339.485C308.132 340.203 310.213 340.203 311.513 339.485C312.813 338.767 312.813 337.528 311.513 336.81C310.213 336.092 308.132 336.092 306.831 336.81Z" fill="#181940"/>
<path d="M294.608 329.763C293.307 330.48 293.307 331.72 294.608 332.438C295.908 333.156 297.989 333.156 299.289 332.438C300.59 331.72 300.59 330.48 299.289 329.763C297.989 329.045 295.908 329.045 294.608 329.763Z" fill="#181940"/>
<path d="M306.831 322.716C305.531 323.434 305.531 324.674 306.831 325.392C308.132 326.109 310.213 326.109 311.513 325.392C312.813 324.674 312.813 323.434 311.513 322.716C310.213 321.933 308.132 321.933 306.831 322.716Z" fill="#181940"/>
<path d="M99.0258 456.801C97.7254 457.519 97.7254 458.759 99.0258 459.476C100.326 460.194 102.407 460.194 103.707 459.476C105.008 458.759 105.008 457.519 103.707 456.801C102.407 456.084 100.326 456.084 99.0258 456.801Z" fill="#181940"/>
<path d="M86.8666 449.754C85.5662 450.472 85.5662 451.712 86.8666 452.429C88.167 453.147 90.2477 453.147 91.5481 452.429C92.8485 451.712 92.8485 450.472 91.5481 449.754C90.2477 449.036 88.102 449.036 86.8666 449.754Z" fill="#181940"/>
<path d="M111.249 449.754C109.949 450.472 109.949 451.712 111.249 452.429C112.55 453.147 114.631 453.147 115.931 452.429C117.231 451.712 117.231 450.472 115.931 449.754C114.631 449.036 112.55 449.036 111.249 449.754Z" fill="#181940"/>
<path d="M99.0258 442.707C97.7254 443.424 97.7254 444.664 99.0258 445.382C100.326 446.1 102.407 446.1 103.707 445.382C105.008 444.664 105.008 443.424 103.707 442.707C102.407 441.924 100.326 441.924 99.0258 442.707Z" fill="#181940"/>
<path d="M123.474 442.707C122.174 443.424 122.174 444.664 123.474 445.382C124.774 446.1 126.855 446.1 128.156 445.382C129.456 444.664 129.456 443.424 128.156 442.707C126.855 441.924 124.709 441.924 123.474 442.707Z" fill="#181940"/>
<path d="M111.249 435.596C109.949 436.313 109.949 437.553 111.249 438.271C112.55 438.989 114.631 438.989 115.931 438.271C117.231 437.553 117.231 436.313 115.931 435.596C114.631 434.878 112.55 434.878 111.249 435.596Z" fill="#181940"/>
<path d="M135.632 435.596C134.332 436.313 134.332 437.553 135.632 438.271C136.933 438.989 139.013 438.989 140.314 438.271C141.614 437.553 141.614 436.313 140.314 435.596C139.013 434.878 136.933 434.878 135.632 435.596Z" fill="#181940"/>
<path d="M123.474 428.548C122.174 429.266 122.174 430.506 123.474 431.223C124.774 431.941 126.855 431.941 128.156 431.223C129.456 430.506 129.456 429.266 128.156 428.548C126.855 427.765 124.709 427.765 123.474 428.548Z" fill="#181940"/>
<path d="M147.857 428.548C146.556 429.266 146.556 430.506 147.857 431.223C149.157 431.941 151.238 431.941 152.538 431.223C153.839 430.506 153.839 429.266 152.538 428.548C151.238 427.765 149.157 427.765 147.857 428.548Z" fill="#181940"/>
<path d="M135.632 421.501C134.332 422.219 134.332 423.458 135.632 424.176C136.933 424.894 139.013 424.894 140.314 424.176C141.614 423.458 141.614 422.219 140.314 421.501C139.013 420.718 136.933 420.718 135.632 421.501Z" fill="#181940"/>
<path d="M160.145 421.371C158.845 422.089 158.845 423.328 160.145 424.046C161.445 424.764 163.526 424.764 164.826 424.046C166.127 423.328 166.127 422.089 164.826 421.371C163.526 420.653 161.445 420.653 160.145 421.371Z" fill="#181940"/>
<path d="M147.987 414.325C146.686 415.043 146.686 416.282 147.987 417C149.287 417.718 151.368 417.718 152.668 417C153.969 416.282 153.969 415.043 152.668 414.325C151.368 413.607 149.222 413.607 147.987 414.325Z" fill="#181940"/>
<path d="M172.37 414.325C171.069 415.043 171.069 416.282 172.37 417C173.67 417.718 175.751 417.718 177.051 417C178.351 416.282 178.351 415.043 177.051 414.325C175.751 413.607 173.67 413.607 172.37 414.325Z" fill="#181940"/>
<path d="M160.145 407.277C158.845 407.995 158.845 409.235 160.145 409.953C161.445 410.67 163.526 410.67 164.826 409.953C166.127 409.235 166.127 407.995 164.826 407.277C163.526 406.494 161.445 406.494 160.145 407.277Z" fill="#181940"/>
<path d="M184.592 407.277C183.292 407.995 183.292 409.235 184.592 409.952C185.893 410.67 187.973 410.67 189.274 409.952C190.574 409.235 190.574 407.995 189.274 407.277C187.973 406.559 185.828 406.494 184.592 407.277Z" fill="#181940"/>
<path d="M172.37 400.165C171.069 400.883 171.069 402.123 172.37 402.84C173.67 403.558 175.751 403.558 177.051 402.84C178.351 402.123 178.351 400.883 177.051 400.165C175.751 399.448 173.67 399.448 172.37 400.165Z" fill="#181940"/>
<path d="M196.752 400.165C195.452 400.883 195.452 402.123 196.752 402.84C198.053 403.558 200.133 403.558 201.434 402.84C202.734 402.123 202.734 400.883 201.434 400.165C200.133 399.448 198.053 399.448 196.752 400.165Z" fill="#181940"/>
<path d="M184.592 393.119C183.292 393.837 183.292 395.077 184.592 395.795C185.893 396.512 187.973 396.512 189.274 395.795C190.574 395.077 190.574 393.837 189.274 393.119C187.973 392.402 185.828 392.402 184.592 393.119Z" fill="#181940"/>
<path d="M208.975 393.119C207.675 393.837 207.675 395.077 208.975 395.795C210.275 396.512 212.356 396.512 213.657 395.795C214.957 395.077 214.957 393.837 213.657 393.119C212.356 392.402 210.275 392.402 208.975 393.119Z" fill="#181940"/>
<path d="M196.752 386.072C195.452 386.79 195.452 388.029 196.752 388.747C198.053 389.465 200.133 389.465 201.434 388.747C202.734 388.029 202.734 386.79 201.434 386.072C200.133 385.289 198.053 385.289 196.752 386.072Z" fill="#181940"/>
<path d="M221.2 386.072C219.899 386.79 219.899 388.029 221.2 388.747C222.5 389.465 224.581 389.465 225.881 388.747C227.182 388.029 227.182 386.79 225.881 386.072C224.516 385.289 222.435 385.289 221.2 386.072Z" fill="#181940"/>
<path d="M208.975 378.96C207.675 379.677 207.675 380.917 208.975 381.635C210.275 382.353 212.356 382.353 213.657 381.635C214.957 380.917 214.957 379.677 213.657 378.96C212.356 378.242 210.275 378.242 208.975 378.96Z" fill="#181940"/>
<path d="M233.358 378.96C232.057 379.677 232.057 380.917 233.358 381.635C234.658 382.353 236.739 382.353 238.039 381.635C239.34 380.917 239.34 379.677 238.039 378.96C236.739 378.242 234.658 378.242 233.358 378.96Z" fill="#181940"/>
<path d="M221.2 371.914C219.899 372.632 219.899 373.871 221.2 374.589C222.5 375.307 224.581 375.307 225.881 374.589C227.182 373.871 227.182 372.632 225.881 371.914C224.516 371.196 222.435 371.196 221.2 371.914Z" fill="#181940"/>
<path d="M245.582 371.914C244.282 372.632 244.282 373.871 245.582 374.589C246.883 375.307 248.964 375.307 250.264 374.589C251.564 373.871 251.564 372.632 250.264 371.914C248.964 371.196 246.883 371.196 245.582 371.914Z" fill="#181940"/>
<path d="M233.358 364.866C232.057 365.584 232.057 366.824 233.358 367.541C234.658 368.259 236.739 368.259 238.039 367.541C239.34 366.824 239.34 365.584 238.039 364.866C236.739 364.083 234.658 364.083 233.358 364.866Z" fill="#181940"/>
<path d="M257.871 364.801C256.57 365.519 256.57 366.758 257.871 367.476C259.171 368.194 261.252 368.194 262.552 367.476C263.852 366.758 263.852 365.519 262.552 364.801C261.252 364.018 259.171 364.018 257.871 364.801Z" fill="#181940"/>
<path d="M245.648 357.689C244.348 358.407 244.348 359.646 245.648 360.364C246.948 361.082 249.029 361.082 250.329 360.364C251.63 359.646 251.63 358.407 250.329 357.689C249.029 356.971 246.948 356.971 245.648 357.689Z" fill="#181940"/>
<path d="M270.095 357.689C268.795 358.407 268.795 359.646 270.095 360.364C271.396 361.082 273.476 361.082 274.777 360.364C276.077 359.646 276.077 358.407 274.777 357.689C273.476 356.971 271.396 356.971 270.095 357.689Z" fill="#181940"/>
<path d="M257.871 350.643C256.57 351.36 256.57 352.6 257.871 353.318C259.171 354.036 261.252 354.036 262.552 353.318C263.852 352.6 263.852 351.36 262.552 350.643C261.252 349.86 259.171 349.86 257.871 350.643Z" fill="#181940"/>
<path d="M282.253 350.643C280.953 351.36 280.953 352.6 282.253 353.318C283.554 354.036 285.634 354.036 286.935 353.318C288.235 352.6 288.235 351.36 286.935 350.643C285.634 349.86 283.554 349.86 282.253 350.643Z" fill="#181940"/>
<path d="M270.095 343.596C268.795 344.313 268.795 345.553 270.095 346.271C271.396 346.988 273.476 346.988 274.777 346.271C276.077 345.553 276.077 344.313 274.777 343.596C273.476 342.813 271.396 342.813 270.095 343.596Z" fill="#181940"/>
<path d="M294.478 343.596C293.178 344.313 293.178 345.553 294.478 346.271C295.778 346.988 297.859 346.988 299.159 346.271C300.46 345.553 300.46 344.313 299.159 343.596C297.859 342.813 295.778 342.813 294.478 343.596Z" fill="#181940"/>
<path d="M282.253 336.483C280.953 337.201 280.953 338.441 282.253 339.159C283.554 339.876 285.634 339.876 286.935 339.159C288.235 338.441 288.235 337.201 286.935 336.483C285.634 335.766 283.554 335.766 282.253 336.483Z" fill="#181940"/>
<path d="M61.9643 462.738C60.6638 463.456 60.6638 464.696 61.9643 465.414C63.2647 466.131 65.3454 466.131 66.6458 465.414C67.9462 464.696 67.9462 463.456 66.6458 462.738C65.3454 462.021 63.2647 462.021 61.9643 462.738Z" fill="#181940"/>
<path d="M49.7397 455.691C48.4393 456.409 48.4393 457.649 49.7397 458.366C51.0401 459.084 53.1208 459.084 54.4212 458.366C55.7216 457.649 55.7216 456.409 54.4212 455.691C53.1208 454.973 51.0401 454.973 49.7397 455.691Z" fill="#181940"/>
<path d="M39.9223 451.842C38.0909 451.842 36.6062 450.995 36.6062 449.95C36.6062 448.905 38.0909 448.058 39.9223 448.058C41.7537 448.058 43.2383 448.905 43.2383 449.95C43.2383 450.995 41.7537 451.842 39.9223 451.842Z" fill="#181940"/>
<path d="M25.3568 441.533C24.0564 442.251 24.0564 443.49 25.3568 444.208C26.6573 444.926 28.7379 444.926 30.0384 444.208C31.3388 443.49 31.3388 442.251 30.0384 441.533C28.7379 440.815 26.6573 440.815 25.3568 441.533Z" fill="#181940"/>
<path d="M13.1342 434.485C11.8338 435.203 11.8338 436.443 13.1342 437.16C14.4346 437.878 16.5153 437.878 17.8157 437.16C19.1161 436.443 19.1161 435.203 17.8157 434.485C16.5153 433.702 14.4346 433.702 13.1342 434.485Z" fill="#181940"/>
<path d="M0.974058 427.44C-0.326355 428.157 -0.326355 429.397 0.974058 430.115C2.27447 430.832 4.35514 430.832 5.65555 430.115C6.95596 429.397 6.95596 428.157 5.65555 427.44C4.35514 426.657 2.27447 426.657 0.974058 427.44Z" fill="#181940"/>
<path d="M86.3471 462.738C85.0467 463.456 85.0467 464.696 86.3471 465.414C87.6475 466.131 89.7282 466.131 91.0286 465.414C92.329 464.696 92.329 463.456 91.0286 462.738C89.7282 462.021 87.6475 462.021 86.3471 462.738Z" fill="#181940"/>
<path d="M74.188 455.691C72.8876 456.409 72.8876 457.649 74.188 458.366C75.4884 459.084 77.569 459.084 78.8694 458.366C80.1698 457.649 80.1698 456.409 78.8694 455.691C77.569 454.973 75.4234 454.973 74.188 455.691Z" fill="#181940"/>
<path d="M61.9643 448.645C60.6638 449.363 60.6638 450.602 61.9643 451.32C63.2647 452.038 65.3454 452.038 66.6458 451.32C67.9462 450.602 67.9462 449.363 66.6458 448.645C65.3454 447.862 63.2647 447.862 61.9643 448.645Z" fill="#181940"/>
<path d="M49.7397 441.533C48.4393 442.251 48.4393 443.49 49.7397 444.208C51.0401 444.926 53.1208 444.926 54.4212 444.208C55.7216 443.49 55.7216 442.251 54.4212 441.533C53.1208 440.815 51.0401 440.815 49.7397 441.533Z" fill="#181940"/>
<path d="M37.5815 434.485C36.2811 435.203 36.2811 436.443 37.5815 437.16C38.8819 437.878 40.9626 437.878 42.263 437.16C43.5634 436.443 43.5634 435.203 42.263 434.485C40.9626 433.702 38.8819 433.702 37.5815 434.485Z" fill="#181940"/>
<path d="M25.3568 427.44C24.0564 428.157 24.0564 429.397 25.3568 430.115C26.6573 430.832 28.7379 430.832 30.0384 430.115C31.3388 429.397 31.3388 428.157 30.0384 427.44C28.7379 426.657 26.6573 426.657 25.3568 427.44Z" fill="#181940"/>
<path d="M13.1342 420.327C11.8338 421.045 11.8338 422.285 13.1342 423.003C14.4346 423.72 16.5153 423.72 17.8157 423.003C19.1161 422.285 19.1161 421.045 17.8157 420.327C16.5153 419.61 14.4346 419.61 13.1342 420.327Z" fill="#181940"/>
<path d="M0.974058 413.28C-0.326355 413.997 -0.326355 415.237 0.974058 415.955C2.27447 416.672 4.35514 416.672 5.65555 415.955C6.95596 415.237 6.95596 413.997 5.65555 413.28C4.35514 412.497 2.27447 412.497 0.974058 413.28Z" fill="#181940"/>
<path d="M58.9088 231.565C58.9088 231.565 70.8726 79.9944 96.1006 65.3789C121.329 50.7634 135.828 215.514 135.828 215.514L109.95 306.47L72.108 326.174L58.9088 231.565Z" fill="#FFD5AD"/>
<path d="M112.486 308.427L138.819 215.71L138.754 215.188C137.519 200.768 125.75 74.1876 103.383 62.5083C100.522 61.0076 97.4662 61.1381 94.6053 62.7693C68.7922 77.711 57.1535 215.645 55.9181 231.304V231.631L69.7675 330.677L112.486 308.427ZM97.5963 67.9238C98.7016 67.2714 99.6119 67.2061 100.717 67.7933C115.412 75.4926 127.961 159.923 132.902 215.188L107.544 304.382L74.514 321.607L61.9 231.5C65.216 189.481 78.0901 79.2117 97.5963 67.9238Z" fill="#181940"/>
<path d="M102.831 66.8708L106.736 68.9517L73.8021 131.189L69.8972 129.108L102.831 66.8708Z" fill="#181940"/>
<path d="M110.219 81.9489L114.125 84.0271L67.1929 172.86L63.2866 170.782L110.219 81.9489Z" fill="#181940"/>
<path d="M115.892 100.076L119.801 102.15L75.5216 186.198L71.6127 184.124L115.892 100.076Z" fill="#181940"/>
<path d="M121.744 118.193L125.646 120.278L86.8439 193.423L82.9412 191.338L121.744 118.193Z" fill="#181940"/>
<path d="M122.748 145.354L126.65 147.44L98.8105 199.908L94.9077 197.823L122.748 145.354Z" fill="#181940"/>
<path d="M118.453 184.309L122.336 186.431L109.992 209.182L106.109 207.06L118.453 184.309Z" fill="#181940"/>
<path d="M209.627 45.2831C211.578 33.8648 213.464 22.1202 213.464 22.1202L186.675 4.95998C186.675 4.95998 186.09 4.69898 184.92 4.04651C180.758 2.28481 176.402 2.54581 171.655 5.28622C117.428 36.6704 111.771 313.908 111.771 313.908C111.771 313.908 110.406 297.727 107.285 276.717L109.236 273.129L100.783 201.421L87.1286 192.939C83.2273 190.525 79.5862 187.654 75.75 185.044C70.9384 181.716 65.5417 181.325 59.4948 185.044C19.7672 209.512 4.03226 399.057 4.03226 399.057L32.5113 416.804L58.7796 367.673L239.797 263.929C239.732 263.929 232.84 119.209 209.627 45.2831Z" fill="#FFD5AD"/>
<path d="M164.958 252.249L239.602 207.228C235.115 159.597 227.313 97.4162 214.569 56.7016C216.519 45.2832 218.405 33.5386 218.405 33.5386L191.616 16.3784C191.616 16.3784 191.031 16.1174 189.861 15.465C185.7 13.7033 181.343 13.9643 176.597 16.7047C144.346 35.3656 129.262 141.067 122.369 223.606L164.958 252.249Z" fill="#FFEECC"/>
<path d="M44.0839 396.186L104.033 255.707L109.104 242.136L105.658 212.774L92.0041 204.292C88.1028 201.878 84.4617 199.007 80.6255 196.397C75.8139 193.069 70.4172 192.678 64.3703 196.397C35.1761 214.405 18.986 321.346 12.4189 376.938L44.0839 396.186Z" fill="#FFEECC"/>
<path d="M34.7863 418.826L60.8595 369.825L242.787 265.559L242.722 263.732C242.657 262.297 235.57 118.686 212.683 45.0868C214.568 33.8641 216.389 22.5762 216.389 22.5762L216.714 20.6841L187.845 2.28417C187.78 2.21893 187.26 2.02318 186.089 1.3707C180.888 -0.782475 175.556 -0.32574 170.224 2.80616C129.391 26.4911 115.477 180.28 110.925 262.558L103.513 199.724L88.6883 190.459C86.2176 188.958 83.8768 187.262 81.5361 185.565C80.1706 184.587 78.8052 183.608 77.3748 182.629C71.3278 178.453 64.5657 178.388 57.8686 182.499C17.3607 207.489 1.62576 391.031 0.975555 398.795L0.845535 400.622L32.3155 420.327L34.7863 418.826ZM60.9896 187.523C65.7361 184.587 69.8974 184.587 74.0587 187.458C75.4241 188.371 76.7245 189.35 78.09 190.328C80.5608 192.09 82.9665 193.852 85.5674 195.483L97.9863 203.247L106.179 272.671L104.228 276.325L104.358 277.304C107.479 297.922 108.845 314.104 108.845 314.299L114.697 314.104C114.762 311.233 120.939 38.1052 173.15 7.89549C176.921 5.74231 180.367 5.35082 183.488 6.65578C184.464 7.24301 185.179 7.504 185.244 7.56925L210.277 23.555C209.627 27.3393 208.196 36.1478 206.766 44.8258L206.636 45.5435L206.831 46.196C228.222 114.445 235.83 245.332 236.74 262.232L56.5682 365.519L31.4052 412.628L7.08751 397.49C8.84306 378.112 24.9682 209.707 60.9896 187.523Z" fill="#181940"/>
<path d="M32.4457 416.803C32.4457 416.803 48.1807 227.258 87.9083 202.79C127.636 178.323 140.25 331.72 140.25 331.72C140.25 331.72 145.907 54.4822 200.134 23.0979C254.361 -8.35151 268.275 281.675 268.275 281.675L32.4457 416.803Z" fill="#FFD5AD"/>
<path d="M271.266 283.307L271.201 281.48C270.745 271.758 259.302 43.3903 216.323 19.8358C210.666 16.7692 204.75 16.9649 198.703 20.423C155.464 45.4782 142.395 216.362 138.689 293.877C133.292 258.121 122.564 208.533 103.578 198.941C98.0508 196.135 92.264 196.592 86.3471 200.246C45.8393 225.236 29.9092 410.409 29.259 418.239L32.5101 420.197L271.266 283.307ZM100.977 204.226C123.149 215.514 134.787 300.206 137.388 331.916L143.435 328.458C143.5 325.718 149.547 55.8526 201.694 25.6429C205.92 23.2287 209.756 23.033 213.527 25.1209C245.387 42.5421 261.252 198.419 265.219 280.044L35.8911 411.453C38.8821 379.939 55.2022 226.41 89.4681 205.335C91.8739 203.9 94.0845 203.117 96.2952 203.117C97.9208 203.117 99.4162 203.443 100.977 204.226Z" fill="#181940"/>
<path d="M264.179 234.371L269.121 226.737L247.014 215.384C247.014 215.384 244.933 214.144 244.868 214.144C237.001 210.36 227.638 210.295 216.519 216.689C167.949 244.811 169.834 312.407 119.313 352.731C68.8575 393.054 47.7258 379.417 47.7258 379.417L42.004 420.523L66.9068 433.377L138.885 382.092L281.02 283.568C281.02 283.568 276.273 255.446 264.179 234.371Z" fill="#FFD5AD"/>
<path d="M270.031 243.766L274.972 236.132L252.865 224.779C252.865 224.779 250.785 223.54 250.72 223.54C242.852 219.755 233.489 219.69 222.371 226.084C173.8 254.206 175.686 321.803 125.165 362.126C74.709 402.449 53.5773 388.812 53.5773 388.812L49.9361 416.282L84.397 410.409L141.55 376.611L286.871 292.963C286.871 292.963 282.19 264.907 270.031 243.766Z" fill="#FFEECC"/>
<path d="M140.575 384.571L284.271 284.938L283.945 283.111C283.75 282.002 279.199 255.576 267.625 234.501L273.412 225.628L248.574 212.904C247.664 212.317 246.884 211.86 246.168 211.534C236.61 206.902 226.142 207.815 215.089 214.209C189.34 229.151 177.507 254.402 165.023 281.154C153.449 305.817 141.55 331.394 117.558 350.512C69.8976 388.617 49.6112 377.068 49.4162 377.003L45.5149 374.458L38.8178 422.219L66.1264 436.509L140.575 384.571ZM50.1964 383.527C58.7791 385.876 81.2763 386.986 121.199 355.079C146.232 335.048 158.521 308.884 170.354 283.568C182.448 257.664 193.892 233.262 218.08 219.233C227.508 213.818 235.83 212.97 243.633 216.754L243.958 216.884C244.543 217.211 245.518 217.798 245.713 217.928L264.894 227.781L260.733 234.24L261.643 235.806C271.591 253.162 276.533 275.673 277.768 282.198L137.194 379.743L66.7116 429.984L45.2549 418.892L50.1964 383.527Z" fill="#181940"/>
<path d="M306.117 295.9C306.117 295.9 290.187 200.964 241.617 229.086C193.046 257.208 194.932 324.804 144.411 365.128C93.9551 405.451 72.8234 391.814 72.8234 391.814L67.1016 432.92L306.117 295.9Z" fill="#FFD5AD"/>
<path d="M47.7913 379.417L72.8242 391.749L66.9724 433.442L42.0695 420.523L47.7913 379.417Z" fill="#FFD5AD"/>
<path d="M66.5813 436.574L63.7854 435.139L38.8175 422.219L45.4496 374.98L70.6126 386.725L74.3188 389.139L75.164 389.53C78.8702 391.096 99.4817 397.23 142.655 362.713C166.648 343.531 178.547 318.019 190.12 293.355C202.604 266.603 214.438 241.352 240.186 226.411C251.175 220.016 261.578 219.103 271.071 223.54C298.965 236.72 308.653 292.898 309.043 295.312L309.368 297.335L69.7673 434.682L66.5813 436.574ZM45.2545 418.892L64.6307 428.875L69.6373 393.445L50.1311 383.854L45.2545 418.892ZM75.229 395.859L70.8076 427.244L302.801 294.334C300.85 284.286 290.837 239.526 268.47 228.955C260.733 225.302 252.41 226.15 243.047 231.565C218.86 245.594 207.481 269.996 195.387 295.9C183.553 321.216 171.329 347.38 146.232 367.411C106.309 399.317 83.8118 398.274 75.229 395.859Z" fill="#181940"/>
<path d="M316 306.861C316 306.861 300.07 211.925 251.5 240.047C202.929 268.169 204.815 335.766 154.294 376.089C103.838 416.412 82.7062 402.775 82.7062 402.775L76.9844 443.882L316 306.861Z" fill="#181940"/>
</g>
<defs>
<clipPath id="clip0">
<rect width="316" height="466" fill="white" transform="matrix(-1 0 0 1 316 0)"/>
</clipPath>
</defs>
</svg>
