<svg width="168" height="30" viewBox="0 0 168 30" fill="none" xmlns="http://www.w3.org/2000/svg">
<path d="M48.7531 0.342308C49.1151 0.280769 49.5713 0.25 50.1067 0.25C50.642 0.25 51.0815 0.280769 51.4442 0.342308L45.7471 10.1923C45.3844 10.2538 44.9433 10.2831 44.4088 10.2831C43.8742 10.2831 43.418 10.2523 43.0552 10.1923L45.1167 6.64615L41.4651 0.343077C41.8271 0.281538 42.2833 0.250769 42.8187 0.250769C43.354 0.250769 43.7951 0.281538 44.1571 0.343077L46.4551 4.52538L48.7531 0.342308ZM61.3746 0.342308C62.2096 0.205385 63.0446 0.205385 63.878 0.342308V10.1923C63.0438 10.3285 62.2096 10.3285 61.3754 10.1923V6.22154H57.1405V10.1908C56.3071 10.3277 55.4729 10.3277 54.6396 10.1908V0.343077C55.4729 0.206154 56.3071 0.206154 57.1405 0.343077V4.20692H61.3754L61.3746 0.342308ZM76.8774 10.1923C76.0432 10.3285 75.209 10.3285 74.374 10.1923V4.41923L69.6038 10.1923C68.959 10.2985 68.2982 10.2985 67.6382 10.1923V0.342308C68.4708 0.205385 69.305 0.205385 70.1392 0.342308V6.11538L74.9102 0.342308C75.5558 0.236154 76.2174 0.236154 76.8782 0.342308L76.8774 10.1923ZM85.0131 0.326923C86.0039 0.326923 86.8078 0.569231 87.4222 1.05462C88.0351 1.53923 88.3491 2.16231 88.3491 2.91923C88.3491 3.91923 87.8777 4.64615 86.9492 5.10077C87.4366 5.31308 87.8305 5.61615 88.1134 6.01C88.397 6.40385 88.5385 6.87385 88.5385 7.40462C88.5385 8.26769 88.2237 8.95077 87.5956 9.45077C86.9644 9.95077 86.1142 10.1923 85.0443 10.1923H80.6073V0.341538L85.0131 0.326923ZM83.125 4.38846H84.7311C85.0619 4.38846 85.3304 4.29769 85.5341 4.11615C85.7387 3.93462 85.833 3.67769 85.833 3.35923C85.833 2.67769 85.4702 2.34385 84.7303 2.34385H83.1242V4.39L83.125 4.38846ZM83.125 8.17615H84.8885C85.6284 8.17615 85.9912 7.82692 85.9912 7.11461C85.9912 6.43308 85.5972 6.08385 84.7942 6.08385H83.1242L83.125 8.17615ZM98.9107 8.17692C99.037 8.84308 99.037 9.51 98.9107 10.1923H91.7801V0.341538H98.9107C99.037 1.02308 99.037 1.69 98.9107 2.35692H94.3003V4.20538H98.3754C98.5016 4.88769 98.5016 5.55385 98.3754 6.22077H94.3003V8.17461H98.9107V8.17692ZM106.228 0.342308C107.377 0.342308 108.306 0.644615 109.015 1.25C109.723 1.85769 110.085 2.66 110.085 3.64538C110.085 4.63 109.723 5.43231 109.015 6.03923C108.306 6.64538 107.377 6.94692 106.228 6.94692H104.732V10.1908C103.898 10.3262 103.065 10.3262 102.231 10.1908V0.341538L106.228 0.342308ZM106.212 4.90385C106.574 4.90385 106.89 4.79769 107.141 4.58538C107.393 4.37462 107.52 4.05615 107.52 3.63154C107.52 3.20846 107.394 2.88923 107.142 2.67769C106.891 2.46538 106.59 2.35846 106.229 2.35846H104.733V4.93538L106.213 4.90461L106.212 4.90385ZM118.993 8.37385C119.92 8.37385 120.912 8.05538 121.967 7.43385C122.045 7.55538 122.077 7.90308 122.061 8.49538C122.045 9.08615 122.013 9.46461 121.951 9.63154C121.101 10.1315 120.063 10.39 118.835 10.39C117.087 10.39 115.686 9.89 114.632 8.90538C113.577 7.92077 113.058 6.69231 113.058 5.23769C113.058 3.78308 113.593 2.55615 114.648 1.57077C115.702 0.586154 117.103 0.086154 118.851 0.086154C120.078 0.086154 121.117 0.344615 121.967 0.843846C122.031 1.01077 122.061 1.39 122.077 1.98077C122.093 2.57154 122.061 2.91923 121.983 3.04231C120.928 2.41923 119.937 2.10154 119.008 2.10154C118.047 2.10154 117.244 2.39 116.599 2.96538C115.953 3.54231 115.638 4.29923 115.638 5.25385C115.638 6.20769 115.953 6.96615 116.599 7.54231C117.244 8.11769 118.047 8.40538 119.007 8.40538L118.991 8.37461L118.993 8.37385ZM135.029 10.1923C134.196 10.3285 133.362 10.3285 132.527 10.1923V4.41923L127.757 10.1923C127.112 10.2985 126.452 10.2985 125.791 10.1923V0.342308C126.624 0.205385 127.459 0.205385 128.292 0.342308V6.11538L133.062 0.342308C133.708 0.236154 134.369 0.236154 135.03 0.342308L135.029 10.1923ZM146.298 0.342308C146.424 1.02385 146.424 1.69077 146.298 2.35769H143.527V10.1923C142.693 10.3285 141.859 10.3285 141.024 10.1923V2.35769H138.255C138.127 1.67538 138.127 1.00923 138.255 0.342308H146.298ZM156.717 8.17692C156.842 8.84308 156.842 9.51 156.717 10.1923H149.586V0.341538H156.717C156.842 1.02308 156.842 1.69 156.717 2.35692H152.105V4.20538H156.181C156.307 4.88769 156.307 5.55385 156.181 6.22077H152.105V8.17461H156.717V8.17692ZM167.577 0.342308C167.702 1.02385 167.702 1.69077 167.577 2.35769H164.806V10.1923C163.972 10.3285 163.138 10.3285 162.303 10.1923V2.35769H159.534C159.406 1.67538 159.406 1.00923 159.534 0.342308H167.577ZM50.1977 26.38C51.652 26.38 53.2069 25.8815 54.8593 24.9077C54.9823 25.0969 55.0319 25.6438 55.0079 26.5692C54.9823 27.4946 54.9336 28.09 54.8345 28.35C53.5025 29.1331 51.8749 29.5369 49.9508 29.5369C47.2134 29.5369 45.0184 28.7523 43.3652 27.21C41.7136 25.6662 40.8994 23.7423 40.8994 21.4638C40.8994 19.1854 41.7384 17.2608 43.39 15.7177C45.044 14.1738 47.2397 13.39 49.9772 13.39C51.9013 13.39 53.5289 13.7938 54.8609 14.5777C54.9592 14.8392 55.0095 15.4331 55.0335 16.3592C55.0575 17.2854 55.0095 17.8315 54.8849 18.0208C53.2333 17.0469 51.6791 16.5492 50.2233 16.5492C48.7187 16.5492 47.4611 17.0008 46.4503 17.9031C45.4387 18.8046 44.9457 19.9915 44.9457 21.4877C44.9457 22.9838 45.4387 24.1723 46.4503 25.0738C47.4611 25.9762 48.7195 26.4277 50.2233 26.4277L50.1993 26.3815L50.1977 26.38ZM72.8647 29.2285C71.5567 29.4415 70.2494 29.4415 68.9414 29.2285V20.1823L61.4681 29.2285C60.4573 29.3954 59.4226 29.3954 58.3854 29.2285V13.7946C59.6918 13.5808 60.9983 13.5808 62.3063 13.7946V22.8408L69.7804 13.7946C70.792 13.6285 71.8275 13.6285 72.8647 13.7946V29.2285ZM86.8238 13.7946C88.131 13.5808 89.4366 13.5808 90.7446 13.7946V29.2285C89.4374 29.4415 88.1318 29.4415 86.823 29.2285V23.0077H80.187V29.2285C78.8806 29.4415 77.5742 29.4415 76.2661 29.2285V13.7946C77.5734 13.5808 78.8806 13.5808 80.187 13.7946V19.85H86.8222V13.7946H86.8238ZM105.395 26.0692C105.592 27.1154 105.592 28.1615 105.395 29.2277H94.2228V13.7946H105.395C105.592 14.8638 105.592 15.9077 105.395 16.9515H98.1684V19.8492H104.557C104.754 20.9185 104.754 21.9623 104.557 23.0077H98.1684V26.0692H105.395ZM114.397 13.7938C116.198 13.7938 117.653 14.2692 118.763 15.2192C119.873 16.1692 120.441 17.4269 120.441 18.9708C120.441 20.5138 119.873 21.7723 118.763 22.7223C117.652 23.6723 116.198 24.1454 114.397 24.1454H112.054V29.2269C110.747 29.4423 109.44 29.4423 108.131 29.2269V13.7938H114.397ZM114.373 20.9415C114.94 20.9415 115.433 20.7754 115.827 20.4438C116.222 20.1108 116.42 19.6131 116.42 18.9477C116.42 18.2823 116.222 17.7846 115.829 17.4523C115.433 17.1192 114.964 16.9523 114.397 16.9523H112.054V20.9908L114.373 20.9415ZM133.832 13.7946C134.03 14.8638 134.03 15.9085 133.832 16.9515H127.223V29.2285C125.915 29.4415 124.608 29.4415 123.3 29.2285V13.7946H133.832ZM150.949 29.2285C149.642 29.4415 148.336 29.4415 147.028 29.2285V20.1823L139.554 29.2285C138.543 29.3954 137.507 29.3954 136.472 29.2285V13.7946C137.779 13.5808 139.084 13.5808 140.393 13.7946V22.8408L147.867 13.7946C148.877 13.6285 149.914 13.6285 150.949 13.7946V29.2285ZM166.661 29.2046C165.353 29.4185 164.045 29.4185 162.737 29.2046V23.9815H161.209L157.682 29.2046C157.115 29.3 156.399 29.3477 155.536 29.3477C154.674 29.3477 153.958 29.3 153.39 29.2046L157.286 23.4123C156.324 23.0077 155.584 22.4138 155.043 21.6308C154.499 20.8462 154.228 19.9462 154.228 18.9231C154.228 17.4031 154.771 16.1692 155.856 15.2192C156.941 14.2692 158.397 13.7946 160.197 13.7946H166.683L166.659 29.2046H166.661ZM160.223 16.9277C159.655 16.9277 159.186 17.0954 158.793 17.4262C158.397 17.7592 158.201 18.2338 158.201 18.8754C158.201 19.5169 158.397 19.9908 158.793 20.3238C159.186 20.6585 159.679 20.8238 160.247 20.8238H162.713V16.9292H160.223V16.9277Z" fill="#082CAF"/>
<path d="M0 29.3292H30.1794V0.275391H0V29.3292ZM26.408 25.6962H3.77303V3.90616H26.408V25.6962ZM18.7437 24.45L8.72223 14.8023L18.7437 5.15231V10.2885L14.0558 14.8015L18.7445 19.3146V24.45H18.7437Z" fill="#FF3A4F"/>
</svg>
