<svg width="457" height="473" viewBox="0 0 457 473" fill="none" xmlns="http://www.w3.org/2000/svg">
<g clip-path="url(#clip0)">
<path d="M268.778 439.484C270.179 440.254 270.179 441.584 268.778 442.353C267.377 443.123 265.135 443.123 263.734 442.353C262.333 441.584 262.333 440.254 263.734 439.484C265.135 438.715 267.377 438.715 268.778 439.484Z" fill="#181940"/>
<path d="M281.946 431.925C283.347 432.694 283.347 434.024 281.946 434.793C280.545 435.563 278.303 435.563 276.902 434.793C275.501 434.024 275.501 432.694 276.902 431.925C278.303 431.085 280.545 431.085 281.946 431.925Z" fill="#181940"/>
<path d="M295.046 424.298C296.447 425.068 296.447 426.397 295.046 427.167C293.645 427.936 291.404 427.936 290.003 427.167C288.602 426.397 288.602 425.068 290.003 424.298C291.404 423.528 293.715 423.528 295.046 424.298Z" fill="#181940"/>
<path d="M308.214 416.743C309.615 417.513 309.615 418.842 308.214 419.612C306.813 420.382 304.572 420.382 303.171 419.612C301.77 418.842 301.77 417.513 303.171 416.743C304.572 415.974 306.813 415.974 308.214 416.743Z" fill="#181940"/>
<path d="M321.384 409.184C322.785 409.954 322.785 411.284 321.384 412.053C319.983 412.823 317.742 412.823 316.341 412.053C314.94 411.284 314.94 409.954 316.341 409.184C317.742 408.345 319.983 408.345 321.384 409.184Z" fill="#181940"/>
<path d="M334.483 401.558C335.884 402.327 335.884 403.657 334.483 404.426C333.082 405.196 330.84 405.196 329.439 404.426C328.038 403.657 328.038 402.327 329.439 401.558C330.84 400.788 333.152 400.788 334.483 401.558Z" fill="#181940"/>
<path d="M255.608 431.925C257.009 432.694 257.009 434.024 255.608 434.793C254.207 435.563 251.965 435.563 250.564 434.793C249.163 434.024 249.163 432.694 250.564 431.925C251.965 431.085 254.277 431.085 255.608 431.925Z" fill="#181940"/>
<path d="M268.778 424.298C270.179 425.068 270.179 426.397 268.778 427.167C267.377 427.936 265.135 427.936 263.734 427.167C262.333 426.397 262.333 425.068 263.734 424.298C265.135 423.528 267.377 423.528 268.778 424.298Z" fill="#181940"/>
<path d="M281.946 416.743C283.347 417.513 283.347 418.842 281.946 419.612C280.545 420.382 278.303 420.382 276.902 419.612C275.501 418.842 275.501 417.513 276.902 416.743C278.303 415.974 280.545 415.974 281.946 416.743Z" fill="#181940"/>
<path d="M295.046 409.184C296.447 409.954 296.447 411.284 295.046 412.053C293.645 412.823 291.404 412.823 290.003 412.053C288.602 411.284 288.602 409.954 290.003 409.184C291.404 408.345 293.715 408.345 295.046 409.184Z" fill="#181940"/>
<path d="M308.214 401.558C309.615 402.327 309.615 403.657 308.214 404.426C306.813 405.196 304.572 405.196 303.171 404.426C301.77 403.657 301.77 402.327 303.171 401.558C304.572 400.788 306.813 400.788 308.214 401.558Z" fill="#181940"/>
<path d="M321.384 394.003C322.785 394.773 322.785 396.102 321.384 396.872C319.983 397.642 317.742 397.642 316.341 396.872C314.94 396.102 314.94 394.773 316.341 394.003C317.742 393.233 319.983 393.233 321.384 394.003Z" fill="#181940"/>
<path d="M242.509 424.298C243.91 425.068 243.91 426.397 242.509 427.167C241.108 427.936 238.867 427.936 237.466 427.167C236.065 426.397 236.065 425.068 237.466 424.298C238.867 423.528 241.108 423.528 242.509 424.298Z" fill="#181940"/>
<path d="M255.608 416.743C257.009 417.513 257.009 418.842 255.608 419.612C254.207 420.382 251.965 420.382 250.564 419.612C249.163 418.842 249.163 417.513 250.564 416.743C251.965 415.974 254.277 415.974 255.608 416.743Z" fill="#181940"/>
<path d="M268.778 409.184C270.179 409.954 270.179 411.284 268.778 412.053C267.377 412.823 265.135 412.823 263.734 412.053C262.333 411.284 262.333 409.954 263.734 409.184C265.135 408.345 267.377 408.345 268.778 409.184Z" fill="#181940"/>
<path d="M281.946 401.558C283.347 402.327 283.347 403.657 281.946 404.426C280.545 405.196 278.303 405.196 276.902 404.426C275.501 403.657 275.501 402.327 276.902 401.558C278.303 400.788 280.545 400.788 281.946 401.558Z" fill="#181940"/>
<path d="M295.046 394.003C296.447 394.773 296.447 396.102 295.046 396.872C293.645 397.642 291.404 397.642 290.003 396.872C288.602 396.102 288.602 394.773 290.003 394.003C291.404 393.233 293.715 393.233 295.046 394.003Z" fill="#181940"/>
<path d="M308.214 386.444C309.615 387.214 309.615 388.543 308.214 389.313C306.813 390.083 304.572 390.083 303.171 389.313C301.77 388.543 301.77 387.214 303.171 386.444C304.572 385.605 306.813 385.605 308.214 386.444Z" fill="#181940"/>
<path d="M229.339 416.743C230.74 417.513 230.74 418.842 229.339 419.612C227.938 420.382 225.697 420.382 224.296 419.612C222.895 418.842 222.895 417.513 224.296 416.743C225.697 415.974 227.938 415.974 229.339 416.743Z" fill="#181940"/>
<path d="M242.509 409.184C243.91 409.954 243.91 411.284 242.509 412.053C241.108 412.823 238.867 412.823 237.466 412.053C236.065 411.284 236.065 409.954 237.466 409.184C238.867 408.345 241.108 408.345 242.509 409.184Z" fill="#181940"/>
<path d="M255.608 401.558C257.009 402.327 257.009 403.657 255.608 404.426C254.207 405.196 251.965 405.196 250.564 404.426C249.163 403.657 249.163 402.327 250.564 401.558C251.965 400.788 254.277 400.788 255.608 401.558Z" fill="#181940"/>
<path d="M268.778 394.003C270.179 394.773 270.179 396.102 268.778 396.872C267.377 397.642 265.135 397.642 263.734 396.872C262.333 396.102 262.333 394.773 263.734 394.003C265.135 393.233 267.377 393.233 268.778 394.003Z" fill="#181940"/>
<path d="M281.946 386.444C283.347 387.214 283.347 388.543 281.946 389.313C280.545 390.083 278.303 390.083 276.902 389.313C275.501 388.543 275.501 387.214 276.902 386.444C278.303 385.605 280.545 385.605 281.946 386.444Z" fill="#181940"/>
<path d="M295.046 378.817C296.447 379.587 296.447 380.917 295.046 381.686C293.645 382.456 291.404 382.456 290.003 381.686C288.602 380.917 288.602 379.587 290.003 378.817C291.404 378.048 293.715 378.048 295.046 378.817Z" fill="#181940"/>
<path d="M216.17 409.184C217.571 409.954 217.571 411.284 216.17 412.053C214.769 412.823 212.528 412.823 211.127 412.053C209.726 411.284 209.726 409.954 211.127 409.184C212.598 408.345 214.84 408.345 216.17 409.184Z" fill="#181940"/>
<path d="M229.339 401.558C230.74 402.327 230.74 403.657 229.339 404.426C227.938 405.196 225.697 405.196 224.296 404.426C222.895 403.657 222.895 402.327 224.296 401.558C225.697 400.788 227.938 400.788 229.339 401.558Z" fill="#181940"/>
<path d="M239.988 397.502C241.961 397.502 243.56 396.593 243.56 395.473C243.56 394.352 241.961 393.443 239.988 393.443C238.014 393.443 236.415 394.352 236.415 395.473C236.415 396.593 238.014 397.502 239.988 397.502Z" fill="#181940"/>
<path d="M255.608 386.444C257.009 387.214 257.009 388.543 255.608 389.313C254.207 390.083 251.965 390.083 250.564 389.313C249.163 388.543 249.163 387.214 250.564 386.444C251.965 385.605 254.277 385.605 255.608 386.444Z" fill="#181940"/>
<path d="M268.778 378.817C270.179 379.587 270.179 380.917 268.778 381.686C267.377 382.456 265.135 382.456 263.734 381.686C262.333 380.917 262.333 379.587 263.734 378.817C265.135 378.048 267.377 378.048 268.778 378.817Z" fill="#181940"/>
<path d="M281.946 371.263C283.347 372.032 283.347 373.362 281.946 374.132C280.545 374.901 278.303 374.901 276.902 374.132C275.501 373.362 275.501 372.032 276.902 371.263C278.303 370.493 280.545 370.493 281.946 371.263Z" fill="#181940"/>
<path d="M202.93 401.489C204.331 402.259 204.331 403.589 202.93 404.358C201.529 405.128 199.288 405.128 197.887 404.358C196.486 403.589 196.486 402.259 197.887 401.489C199.288 400.72 201.529 400.72 202.93 401.489Z" fill="#181940"/>
<path d="M216.1 393.932C217.501 394.702 217.501 396.032 216.1 396.801C214.699 397.571 212.458 397.571 211.057 396.801C209.656 396.032 209.656 394.702 211.057 393.932C212.458 393.093 214.699 393.093 216.1 393.932Z" fill="#181940"/>
<path d="M242.369 378.749C243.77 379.519 243.77 380.848 242.369 381.618C240.968 382.388 238.726 382.388 237.325 381.618C235.924 380.848 235.924 379.519 237.325 378.749C238.726 377.979 240.968 377.979 242.369 378.749Z" fill="#181940"/>
<path d="M97.7867 446.97C99.1876 447.74 99.1876 449.069 97.7867 449.839C96.3857 450.608 94.1441 450.608 92.7431 449.839C91.3421 449.069 91.3421 447.74 92.7431 446.97C94.1441 446.2 96.3857 446.2 97.7867 446.97Z" fill="#181940"/>
<path d="M110.957 439.414C112.358 440.184 112.358 441.513 110.957 442.283C109.556 443.052 107.314 443.052 105.913 442.283C104.512 441.513 104.512 440.184 105.913 439.414C107.314 438.574 109.556 438.574 110.957 439.414Z" fill="#181940"/>
<path d="M124.055 431.856C125.456 432.626 125.456 433.955 124.055 434.725C122.654 435.495 120.413 435.495 119.012 434.725C117.611 433.955 117.611 432.626 119.012 431.856C120.413 431.017 122.654 431.017 124.055 431.856Z" fill="#181940"/>
<path d="M137.225 424.23C138.626 424.999 138.626 426.329 137.225 427.098C135.824 427.868 133.583 427.868 132.182 427.098C130.781 426.329 130.781 424.999 132.182 424.23C133.583 423.46 135.824 423.46 137.225 424.23Z" fill="#181940"/>
<path d="M150.394 416.673C151.795 417.442 151.795 418.772 150.394 419.542C148.993 420.311 146.752 420.311 145.351 419.542C143.95 418.772 143.95 417.442 145.351 416.673C146.752 415.833 148.993 415.833 150.394 416.673Z" fill="#181940"/>
<path d="M163.494 409.116C164.895 409.886 164.895 411.215 163.494 411.985C162.093 412.754 159.851 412.754 158.45 411.985C157.049 411.215 157.049 409.886 158.45 409.116C159.851 408.276 162.093 408.276 163.494 409.116Z" fill="#181940"/>
<path d="M176.663 401.489C178.064 402.259 178.064 403.589 176.663 404.358C175.262 405.128 173.02 405.128 171.619 404.358C170.218 403.589 170.218 402.259 171.619 401.489C173.02 400.72 175.262 400.72 176.663 401.489Z" fill="#181940"/>
<path d="M255.538 371.192C256.939 371.962 256.939 373.291 255.538 374.061C254.137 374.831 251.895 374.831 250.494 374.061C249.093 373.291 249.093 371.962 250.494 371.192C251.895 370.353 254.137 370.353 255.538 371.192Z" fill="#181940"/>
<path d="M268.637 363.566C270.038 364.335 270.038 365.665 268.637 366.434C267.236 367.204 264.995 367.204 263.594 366.434C262.193 365.665 262.193 364.335 263.594 363.566C265.065 362.796 267.306 362.796 268.637 363.566Z" fill="#181940"/>
<path d="M189.833 393.932C191.234 394.702 191.234 396.032 189.833 396.801C188.432 397.571 186.19 397.571 184.789 396.801C183.388 396.032 183.388 394.702 184.789 393.932C186.19 393.093 188.432 393.093 189.833 393.932Z" fill="#181940"/>
<path d="M202.93 386.376C204.331 387.146 204.331 388.475 202.93 389.245C201.529 390.014 199.288 390.014 197.887 389.245C196.486 388.475 196.486 387.146 197.887 386.376C199.288 385.536 201.529 385.536 202.93 386.376Z" fill="#181940"/>
<path d="M229.269 371.192C230.67 371.962 230.67 373.291 229.269 374.061C227.868 374.831 225.627 374.831 224.226 374.061C222.825 373.291 222.825 371.962 224.226 371.192C225.627 370.353 227.868 370.353 229.269 371.192Z" fill="#181940"/>
<path d="M71.5181 446.97C72.9191 447.74 72.9191 449.069 71.5181 449.839C70.1171 450.608 67.8755 450.608 66.4746 449.839C65.0736 449.069 65.0736 447.74 66.4746 446.97C67.8755 446.2 70.1171 446.2 71.5181 446.97Z" fill="#181940"/>
<path d="M84.6187 439.414C86.0197 440.184 86.0197 441.513 84.6187 442.283C83.2177 443.052 80.9761 443.052 79.5752 442.283C78.1742 441.513 78.1742 440.184 79.5752 439.414C80.9761 438.574 83.2177 438.574 84.6187 439.414Z" fill="#181940"/>
<path d="M97.7867 431.856C99.1876 432.626 99.1876 433.955 97.7867 434.725C96.3857 435.495 94.1441 435.495 92.7431 434.725C91.3421 433.955 91.3421 432.626 92.7431 431.856C94.1441 431.017 96.3857 431.017 97.7867 431.856Z" fill="#181940"/>
<path d="M110.957 424.23C112.358 424.999 112.358 426.329 110.957 427.098C109.556 427.868 107.314 427.868 105.913 427.098C104.512 426.329 104.512 424.999 105.913 424.23C107.314 423.46 109.556 423.46 110.957 424.23Z" fill="#181940"/>
<path d="M124.055 416.673C125.456 417.442 125.456 418.772 124.055 419.542C122.654 420.311 120.413 420.311 119.012 419.542C117.611 418.772 117.611 417.442 119.012 416.673C120.413 415.833 122.654 415.833 124.055 416.673Z" fill="#181940"/>
<path d="M137.225 409.117C138.626 409.887 138.626 411.217 137.225 411.986C135.824 412.756 133.583 412.756 132.182 411.986C130.781 411.217 130.781 409.887 132.182 409.117C133.583 408.348 135.824 408.278 137.225 409.117Z" fill="#181940"/>
<path d="M147.872 404.987C149.845 404.987 151.445 404.079 151.445 402.958C151.445 401.837 149.845 400.929 147.872 400.929C145.899 400.929 144.3 401.837 144.3 402.958C144.3 404.079 145.899 404.987 147.872 404.987Z" fill="#181940"/>
<path d="M163.494 393.932C164.895 394.702 164.895 396.032 163.494 396.801C162.093 397.571 159.851 397.571 158.45 396.801C157.049 396.032 157.049 394.702 158.45 393.932C159.851 393.093 162.093 393.093 163.494 393.932Z" fill="#181940"/>
<path d="M242.369 363.566C243.77 364.335 243.77 365.665 242.369 366.434C240.968 367.204 238.726 367.204 237.325 366.434C235.924 365.665 235.924 364.335 237.325 363.566C238.726 362.796 240.968 362.796 242.369 363.566Z" fill="#181940"/>
<path d="M255.538 356.008C256.939 356.778 256.939 358.107 255.538 358.877C254.137 359.646 251.895 359.646 250.494 358.877C249.093 358.107 249.093 356.778 250.494 356.008C251.895 355.238 254.137 355.238 255.538 356.008Z" fill="#181940"/>
<path d="M176.663 386.376C178.064 387.146 178.064 388.475 176.663 389.245C175.262 390.014 173.02 390.014 171.619 389.245C170.218 388.475 170.218 387.146 171.619 386.376C173.02 385.536 175.262 385.536 176.663 386.376Z" fill="#181940"/>
<path d="M189.833 378.749C191.234 379.519 191.234 380.848 189.833 381.618C188.432 382.388 186.19 382.388 184.789 381.618C183.388 380.848 183.388 379.519 184.789 378.749C186.19 377.979 188.432 377.979 189.833 378.749Z" fill="#181940"/>
<path d="M187.311 412.545C189.284 412.545 190.883 411.636 190.883 410.515C190.883 409.395 189.284 408.486 187.311 408.486C185.338 408.486 183.738 409.395 183.738 410.515C183.738 411.636 185.338 412.545 187.311 412.545Z" fill="#181940"/>
<path d="M216.1 363.566C217.501 364.335 217.501 365.665 216.1 366.434C214.699 367.204 212.458 367.204 211.057 366.434C209.656 365.665 209.656 364.335 211.057 363.566C212.458 362.796 214.699 362.796 216.1 363.566Z" fill="#181940"/>
<path d="M58.3501 439.414C59.7511 440.184 59.7511 441.513 58.3501 442.283C56.9491 443.052 54.7076 443.052 53.3066 442.283C51.9056 441.513 51.9056 440.184 53.3066 439.414C54.7076 438.574 56.9491 438.574 58.3501 439.414Z" fill="#181940"/>
<path d="M71.5181 431.856C72.9191 432.626 72.9191 433.955 71.5181 434.725C70.1171 435.495 67.8755 435.495 66.4746 434.725C65.0736 433.955 65.0736 432.626 66.4746 431.856C67.8755 431.017 70.1171 431.017 71.5181 431.856Z" fill="#181940"/>
<path d="M84.6187 424.23C86.0197 424.999 86.0197 426.329 84.6187 427.098C83.2177 427.868 80.9761 427.868 79.5752 427.098C78.1742 426.329 78.1742 424.999 79.5752 424.23C80.9761 423.46 83.2177 423.46 84.6187 424.23Z" fill="#181940"/>
<path d="M97.7867 416.673C99.1876 417.442 99.1876 418.772 97.7867 419.542C96.3857 420.311 94.1441 420.311 92.7431 419.542C91.3421 418.772 91.3421 417.442 92.7431 416.673C94.1441 415.833 96.3857 415.833 97.7867 416.673Z" fill="#181940"/>
<path d="M110.957 409.116C112.358 409.886 112.358 411.215 110.957 411.985C109.556 412.754 107.314 412.754 105.913 411.985C104.512 411.215 104.512 409.886 105.913 409.116C107.314 408.276 109.556 408.276 110.957 409.116Z" fill="#181940"/>
<path d="M124.055 401.489C125.456 402.259 125.456 403.589 124.055 404.358C122.654 405.128 120.413 405.128 119.012 404.358C117.611 403.589 117.611 402.259 119.012 401.489C120.413 400.72 122.654 400.72 124.055 401.489Z" fill="#181940"/>
<path d="M137.225 393.932C138.626 394.702 138.626 396.032 137.225 396.801C135.824 397.571 133.583 397.571 132.182 396.801C130.781 396.032 130.781 394.702 132.182 393.932C133.583 393.093 135.824 393.093 137.225 393.932Z" fill="#181940"/>
<path d="M147.872 389.804C149.845 389.804 151.445 388.896 151.445 387.775C151.445 386.655 149.845 385.746 147.872 385.746C145.899 385.746 144.3 386.655 144.3 387.775C144.3 388.896 145.899 389.804 147.872 389.804Z" fill="#181940"/>
<path d="M160.972 382.247C162.945 382.247 164.544 381.338 164.544 380.218C164.544 379.097 162.945 378.188 160.972 378.188C158.999 378.188 157.399 379.097 157.399 380.218C157.399 381.338 158.999 382.247 160.972 382.247Z" fill="#181940"/>
<path d="M226.747 359.507C228.72 359.507 230.32 358.598 230.32 357.477C230.32 356.357 228.72 355.448 226.747 355.448C224.774 355.448 223.175 356.357 223.175 357.477C223.175 358.598 224.774 359.507 226.747 359.507Z" fill="#181940"/>
<path d="M242.369 348.452C243.77 349.222 243.77 350.551 242.369 351.321C240.968 352.09 238.726 352.09 237.325 351.321C235.924 350.551 235.924 349.222 237.325 348.452C238.726 347.612 240.968 347.612 242.369 348.452Z" fill="#181940"/>
<path d="M176.663 371.192C178.064 371.962 178.064 373.291 176.663 374.061C175.262 374.831 173.02 374.831 171.619 374.061C170.218 373.291 170.218 371.962 171.619 371.192C173.02 370.353 175.262 370.353 176.663 371.192Z" fill="#181940"/>
<path d="M202.93 356.008C204.331 356.778 204.331 358.107 202.93 358.877C201.529 359.646 199.288 359.646 197.887 358.877C196.486 358.107 196.486 356.778 197.887 356.008C199.288 355.238 201.529 355.238 202.93 356.008Z" fill="#181940"/>
<path d="M42.6594 435.285C44.6325 435.285 46.2319 434.376 46.2319 433.256C46.2319 432.135 44.6325 431.227 42.6594 431.227C40.6864 431.227 39.0869 432.135 39.0869 433.256C39.0869 434.376 40.6864 435.285 42.6594 435.285Z" fill="#181940"/>
<path d="M58.3501 424.23C59.7511 424.999 59.7511 426.329 58.3501 427.098C56.9491 427.868 54.7076 427.868 53.3066 427.098C51.9056 426.329 51.9056 424.999 53.3066 424.23C54.7076 423.46 56.9491 423.46 58.3501 424.23Z" fill="#181940"/>
<path d="M71.5181 416.673C72.9191 417.442 72.9191 418.772 71.5181 419.542C70.1171 420.311 67.8755 420.311 66.4746 419.542C65.0736 418.772 65.0736 417.442 66.4746 416.673C67.8755 415.833 70.1171 415.833 71.5181 416.673Z" fill="#181940"/>
<path d="M84.6187 409.116C86.0197 409.886 86.0197 411.215 84.6187 411.985C83.2177 412.754 80.9761 412.754 79.5752 411.985C78.1742 411.215 78.1742 409.886 79.5752 409.116C80.9761 408.276 83.2177 408.276 84.6187 409.116Z" fill="#181940"/>
<path d="M97.7867 401.489C99.1876 402.259 99.1876 403.589 97.7867 404.358C96.3857 405.128 94.1441 405.128 92.7431 404.358C91.3421 403.589 91.3421 402.259 92.7431 401.489C94.1441 400.72 96.3857 400.72 97.7867 401.489Z" fill="#181940"/>
<path d="M110.957 393.932C112.358 394.702 112.358 396.032 110.957 396.801C109.556 397.571 107.314 397.571 105.913 396.801C104.512 396.032 104.512 394.702 105.913 393.932C107.314 393.093 109.556 393.093 110.957 393.932Z" fill="#181940"/>
<path d="M124.055 386.376C125.456 387.146 125.456 388.475 124.055 389.245C122.654 390.014 120.413 390.014 119.012 389.245C117.611 388.475 117.611 387.146 119.012 386.376C120.413 385.536 122.654 385.536 124.055 386.376Z" fill="#181940"/>
<path d="M137.225 378.749C138.626 379.519 138.626 380.848 137.225 381.618C135.824 382.388 133.583 382.388 132.182 381.618C130.781 380.848 130.781 379.519 132.182 378.749C133.583 377.979 135.824 377.979 137.225 378.749Z" fill="#181940"/>
<path d="M150.394 371.192C151.795 371.962 151.795 373.291 150.394 374.061C148.993 374.831 146.752 374.831 145.351 374.061C143.95 373.291 143.95 371.962 145.351 371.192C146.752 370.353 148.993 370.353 150.394 371.192Z" fill="#181940"/>
<path d="M163.494 363.566C164.895 364.335 164.895 365.665 163.494 366.434C162.093 367.204 159.851 367.204 158.45 366.434C157.049 365.665 157.049 364.335 158.45 363.566C159.851 362.796 162.093 362.796 163.494 363.566Z" fill="#181940"/>
<path d="M216.1 348.452C217.501 349.222 217.501 350.551 216.1 351.321C214.699 352.09 212.458 352.09 211.057 351.321C209.656 350.551 209.656 349.222 211.057 348.452C212.458 347.612 214.699 347.612 216.1 348.452Z" fill="#181940"/>
<path d="M226.747 344.323C228.72 344.323 230.32 343.414 230.32 342.294C230.32 341.173 228.72 340.265 226.747 340.265C224.774 340.265 223.175 341.173 223.175 342.294C223.175 343.414 224.774 344.323 226.747 344.323Z" fill="#181940"/>
<path d="M189.833 348.452C191.234 349.222 191.234 350.551 189.833 351.321C188.432 352.09 186.19 352.09 184.789 351.321C183.388 350.551 183.388 349.222 184.789 348.452C186.19 347.612 188.432 347.612 189.833 348.452Z" fill="#181940"/>
<path d="M32.0816 424.23C33.4826 424.999 33.4826 426.329 32.0816 427.098C30.6806 427.868 28.439 427.868 27.038 427.098C25.6371 426.329 25.6371 424.999 27.038 424.23C28.439 423.46 30.6806 423.46 32.0816 424.23Z" fill="#181940"/>
<path d="M45.1812 416.673C46.5822 417.442 46.5822 418.772 45.1812 419.542C43.7802 420.311 41.5386 420.311 40.1376 419.542C38.7367 418.772 38.7367 417.442 40.1376 416.673C41.5386 415.833 43.7802 415.833 45.1812 416.673Z" fill="#181940"/>
<path d="M71.5181 401.489C72.9191 402.259 72.9191 403.589 71.5181 404.358C70.1171 405.128 67.8755 405.128 66.4746 404.358C65.0736 403.589 65.0736 402.259 66.4746 401.489C67.8755 400.72 70.1171 400.72 71.5181 401.489Z" fill="#181940"/>
<path d="M84.6187 393.932C86.0197 394.702 86.0197 396.032 84.6187 396.801C83.2177 397.571 80.9761 397.571 79.5752 396.801C78.1742 396.032 78.1742 394.702 79.5752 393.932C80.9761 393.093 83.2177 393.093 84.6187 393.932Z" fill="#181940"/>
<path d="M97.7867 386.376C99.1876 387.146 99.1876 388.475 97.7867 389.245C96.3857 390.014 94.1441 390.014 92.7431 389.245C91.3421 388.475 91.3421 387.146 92.7431 386.376C94.1441 385.536 96.3857 385.536 97.7867 386.376Z" fill="#181940"/>
<path d="M110.957 378.749C112.358 379.519 112.358 380.848 110.957 381.618C109.556 382.388 107.314 382.388 105.913 381.618C104.512 380.848 104.512 379.519 105.913 378.749C107.314 377.979 109.556 377.979 110.957 378.749Z" fill="#181940"/>
<path d="M124.055 371.192C125.456 371.962 125.456 373.291 124.055 374.061C122.654 374.831 120.413 374.831 119.012 374.061C117.611 373.291 117.611 371.962 119.012 371.192C120.413 370.353 122.654 370.353 124.055 371.192Z" fill="#181940"/>
<path d="M137.225 363.566C138.626 364.335 138.626 365.665 137.225 366.434C135.824 367.204 133.583 367.204 132.182 366.434C130.781 365.665 130.781 364.335 132.182 363.566C133.583 362.796 135.824 362.796 137.225 363.566Z" fill="#181940"/>
<path d="M150.394 356.008C151.795 356.778 151.795 358.107 150.394 358.877C148.993 359.646 146.752 359.646 145.351 358.877C143.95 358.107 143.95 356.778 145.351 356.008C146.752 355.238 148.993 355.238 150.394 356.008Z" fill="#181940"/>
<path d="M163.494 348.452C164.895 349.222 164.895 350.551 163.494 351.321C162.093 352.09 159.851 352.09 158.45 351.321C157.049 350.551 157.049 349.222 158.45 348.452C159.851 347.612 162.093 347.612 163.494 348.452Z" fill="#181940"/>
<path d="M202.93 340.825C204.331 341.595 204.331 342.924 202.93 343.694C201.529 344.464 199.288 344.464 197.887 343.694C196.486 342.924 196.486 341.595 197.887 340.825C199.288 340.056 201.529 340.056 202.93 340.825Z" fill="#181940"/>
<path d="M216.1 333.268C217.501 334.037 217.501 335.367 216.1 336.136C214.699 336.906 212.458 336.906 211.057 336.136C209.656 335.367 209.656 334.037 211.057 333.268C212.458 332.498 214.699 332.498 216.1 333.268Z" fill="#181940"/>
<path d="M176.663 340.825C178.064 341.595 178.064 342.924 176.663 343.694C175.262 344.464 173.02 344.464 171.619 343.694C170.218 342.924 170.218 341.595 171.619 340.825C173.02 340.056 175.262 340.056 176.663 340.825Z" fill="#181940"/>
<path d="M32.0816 409.116C33.4826 409.886 33.4826 411.215 32.0816 411.985C30.6806 412.754 28.439 412.754 27.038 411.985C25.6371 411.215 25.6371 409.886 27.038 409.116C28.439 408.276 30.6806 408.276 32.0816 409.116Z" fill="#181940"/>
<path d="M58.3501 393.932C59.7511 394.702 59.7511 396.032 58.3501 396.801C56.9491 397.571 54.7076 397.571 53.3066 396.801C51.9056 396.032 51.9056 394.702 53.3066 393.932C54.7076 393.093 56.9491 393.093 58.3501 393.932Z" fill="#181940"/>
<path d="M71.5181 386.376C72.9191 387.146 72.9191 388.475 71.5181 389.245C70.1171 390.014 67.8755 390.014 66.4746 389.245C65.0736 388.475 65.0736 387.146 66.4746 386.376C67.8755 385.536 70.1171 385.536 71.5181 386.376Z" fill="#181940"/>
<path d="M84.6187 378.749C86.0197 379.519 86.0197 380.848 84.6187 381.618C83.2177 382.388 80.9761 382.388 79.5752 381.618C78.1742 380.848 78.1742 379.519 79.5752 378.749C80.9761 377.979 83.2177 377.979 84.6187 378.749Z" fill="#181940"/>
<path d="M97.7867 371.192C99.1876 371.962 99.1876 373.291 97.7867 374.061C96.3857 374.831 94.1441 374.831 92.7431 374.061C91.3421 373.291 91.3421 371.962 92.7431 371.192C94.1441 370.353 96.3857 370.353 97.7867 371.192Z" fill="#181940"/>
<path d="M110.957 363.566C112.358 364.335 112.358 365.665 110.957 366.434C109.556 367.204 107.314 367.204 105.913 366.434C104.512 365.665 104.512 364.335 105.913 363.566C107.314 362.796 109.556 362.796 110.957 363.566Z" fill="#181940"/>
<path d="M124.055 356.008C125.456 356.778 125.456 358.107 124.055 358.877C122.654 359.646 120.413 359.646 119.012 358.877C117.611 358.107 117.611 356.778 119.012 356.008C120.413 355.238 122.654 355.238 124.055 356.008Z" fill="#181940"/>
<path d="M137.225 348.452C138.626 349.222 138.626 350.551 137.225 351.321C135.824 352.09 133.583 352.09 132.182 351.321C130.781 350.551 130.781 349.222 132.182 348.452C133.583 347.612 135.824 347.612 137.225 348.452Z" fill="#181940"/>
<path d="M150.394 340.825C151.795 341.595 151.795 342.924 150.394 343.694C148.993 344.464 146.752 344.464 145.351 343.694C143.95 342.924 143.95 341.595 145.351 340.825C146.752 340.056 148.993 340.056 150.394 340.825Z" fill="#181940"/>
<path d="M163.494 333.268C164.895 334.037 164.895 335.367 163.494 336.136C162.093 336.906 159.851 336.906 158.45 336.136C157.049 335.367 157.049 334.037 158.45 333.268C159.851 332.498 162.093 332.498 163.494 333.268Z" fill="#181940"/>
<path d="M189.833 333.268C191.234 334.037 191.234 335.367 189.833 336.136C188.432 336.906 186.19 336.906 184.789 336.136C183.388 335.367 183.388 334.037 184.789 333.268C186.19 332.498 188.432 332.498 189.833 333.268Z" fill="#181940"/>
<path d="M202.93 325.712C204.331 326.481 204.331 327.811 202.93 328.58C201.529 329.35 199.288 329.35 197.887 328.58C196.486 327.811 196.486 326.481 197.887 325.712C199.288 324.872 201.529 324.872 202.93 325.712Z" fill="#181940"/>
<path d="M110.957 348.45C112.358 349.22 112.358 350.549 110.957 351.319C109.556 352.089 107.314 352.089 105.913 351.319C104.512 350.549 109.556 347.611 110.957 348.45Z" fill="#181940"/>
<path d="M119.012 340.825C120.413 340.056 122.654 340.056 124.055 340.825C125.456 341.595 125.456 342.924 124.055 343.694C122.654 344.464 120.413 344.464 119.012 343.694C117.681 342.924 117.681 341.665 119.012 340.825C120.413 340.056 117.681 341.665 119.012 340.825Z" fill="#181940"/>
<path d="M137.225 333.268C138.626 334.037 138.626 335.367 137.225 336.136C135.824 336.906 133.583 336.906 132.182 336.136C130.781 335.367 130.781 334.037 132.182 333.268C133.583 332.498 135.824 332.498 137.225 333.268Z" fill="#181940"/>
<path d="M150.394 325.712C151.795 326.481 151.795 327.811 150.394 328.58C148.993 329.35 146.752 329.35 145.351 328.58C143.95 327.811 143.95 326.481 145.351 325.712C146.752 324.872 148.993 324.872 150.394 325.712Z" fill="#181940"/>
<path d="M163.494 318.085C164.895 318.855 164.895 320.184 163.494 320.954C162.093 321.724 159.851 321.724 158.45 320.954C157.049 320.184 157.049 318.855 158.45 318.085C159.851 317.315 162.093 317.315 163.494 318.085Z" fill="#181940"/>
<path d="M176.663 325.712C178.064 326.481 178.064 327.811 176.663 328.58C175.262 329.35 173.02 329.35 171.619 328.58C170.218 327.811 170.218 326.481 171.619 325.712C173.02 324.872 175.262 324.872 176.663 325.712Z" fill="#181940"/>
<path d="M189.833 318.085C191.234 318.855 191.234 320.184 189.833 320.954C188.432 321.724 186.19 321.724 184.789 320.954C183.388 320.184 183.388 318.855 184.789 318.085C186.19 317.315 188.432 317.315 189.833 318.085Z" fill="#181940"/>
<path d="M176.663 310.527C178.064 311.297 178.064 312.627 176.663 313.396C175.262 314.166 173.02 314.166 171.619 313.396C170.218 312.627 170.218 311.297 171.619 310.527C173.02 309.758 175.262 309.758 176.663 310.527Z" fill="#181940"/>
<path d="M268.708 351.461C267.307 352.231 265.065 352.231 263.664 351.461C262.263 350.692 262.263 349.362 263.664 348.593C265.065 347.753 270.109 350.622 268.708 351.461Z" fill="#181940"/>
<path d="M255.538 343.835C254.137 344.604 251.895 344.604 250.494 343.835C249.093 343.065 249.093 341.736 250.494 340.966C251.895 340.196 256.939 343.065 255.538 343.835Z" fill="#181940"/>
<path d="M242.439 333.409C243.84 334.179 243.84 335.508 242.439 336.278C241.038 337.048 238.796 337.117 237.395 336.278C235.994 335.438 235.994 334.179 237.395 333.409C238.796 332.569 241.038 332.569 242.439 333.409C243.77 334.179 241.038 332.569 242.439 333.409Z" fill="#181940"/>
<path d="M229.269 328.721C227.868 329.491 225.627 329.491 224.226 328.721C222.825 327.952 222.825 326.622 224.226 325.852C225.627 325.013 230.67 327.882 229.269 328.721Z" fill="#181940"/>
<path d="M347.933 469.502C349.334 470.272 349.334 471.601 347.933 472.371C346.532 473.141 344.291 473.141 342.89 472.371C341.489 471.601 341.489 470.272 342.89 469.502C344.291 468.732 346.532 468.732 347.933 469.502Z" fill="#181940"/>
<path d="M361.032 461.944C362.433 462.714 362.433 464.044 361.032 464.813C359.631 465.583 357.389 465.583 355.988 464.813C354.587 464.044 354.587 462.714 355.988 461.944C357.389 461.175 359.701 461.175 361.032 461.944Z" fill="#181940"/>
<path d="M374.202 454.389C375.603 455.158 375.603 456.488 374.202 457.257C372.801 458.027 370.559 458.027 369.158 457.257C367.757 456.488 367.757 455.158 369.158 454.389C370.559 453.549 372.801 453.549 374.202 454.389Z" fill="#181940"/>
<path d="M387.371 446.761C388.772 447.531 388.772 448.86 387.371 449.63C385.97 450.399 383.728 450.399 382.327 449.63C380.926 448.86 380.926 447.531 382.327 446.761C383.728 445.991 385.97 445.991 387.371 446.761Z" fill="#181940"/>
<path d="M321.525 469.43C322.926 470.199 322.926 471.529 321.525 472.299C320.124 473.068 317.882 473.068 316.481 472.299C315.08 471.529 315.08 470.199 316.481 469.43C317.882 468.66 320.124 468.66 321.525 469.43Z" fill="#181940"/>
<path d="M334.623 461.874C336.024 462.644 336.024 463.973 334.623 464.743C333.222 465.512 330.98 465.512 329.579 464.743C328.178 463.973 328.178 462.644 329.579 461.874C330.98 461.034 333.292 461.034 334.623 461.874Z" fill="#181940"/>
<path d="M347.793 454.316C349.194 455.086 349.194 456.415 347.793 457.185C346.392 457.955 344.151 457.955 342.75 457.185C341.349 456.415 341.349 455.086 342.75 454.316C344.151 453.477 346.392 453.477 347.793 454.316Z" fill="#181940"/>
<path d="M360.961 446.69C362.362 447.459 362.362 448.789 360.961 449.558C359.56 450.328 357.319 450.328 355.918 449.558C354.517 448.789 354.517 447.459 355.918 446.69C357.319 445.92 359.56 445.92 360.961 446.69Z" fill="#181940"/>
<path d="M371.61 442.631C373.583 442.631 375.182 441.722 375.182 440.601C375.182 439.481 373.583 438.572 371.61 438.572C369.637 438.572 368.037 439.481 368.037 440.601C368.037 441.722 369.637 442.631 371.61 442.631Z" fill="#181940"/>
<path d="M387.23 431.576C388.631 432.346 388.631 433.675 387.23 434.445C385.829 435.214 383.587 435.214 382.186 434.445C380.785 433.675 380.785 432.346 382.186 431.576C383.587 430.736 385.829 430.736 387.23 431.576Z" fill="#181940"/>
<path d="M308.355 461.874C309.756 462.644 309.756 463.973 308.355 464.743C306.954 465.512 304.712 465.512 303.311 464.743C301.91 463.973 301.91 462.644 303.311 461.874C304.712 461.034 306.954 461.034 308.355 461.874Z" fill="#181940"/>
<path d="M319.003 457.745C320.976 457.745 322.576 456.836 322.576 455.716C322.576 454.595 320.976 453.687 319.003 453.687C317.03 453.687 315.431 454.595 315.431 455.716C315.431 456.836 317.03 457.745 319.003 457.745Z" fill="#181940"/>
<path d="M334.623 446.69C336.024 447.459 336.024 448.789 334.623 449.558C333.222 450.328 330.98 450.328 329.579 449.558C328.178 448.789 328.178 447.459 329.579 446.69C330.98 445.92 333.292 445.92 334.623 446.69Z" fill="#181940"/>
<path d="M347.793 439.134C349.194 439.903 349.194 441.233 347.793 442.002C346.392 442.772 344.151 442.772 342.75 442.002C341.349 441.233 341.349 439.903 342.75 439.134C344.151 438.294 346.392 438.294 347.793 439.134Z" fill="#181940"/>
<path d="M360.961 431.576C362.362 432.346 362.362 433.675 360.961 434.445C359.56 435.214 357.319 435.214 355.918 434.445C354.517 433.675 354.517 432.346 355.918 431.576C357.319 430.736 359.56 430.736 360.961 431.576Z" fill="#181940"/>
<path d="M374.061 423.949C375.462 424.719 375.462 426.048 374.061 426.818C372.66 427.588 370.419 427.588 369.018 426.818C367.617 426.048 367.617 424.719 369.018 423.949C370.419 423.18 372.73 423.18 374.061 423.949Z" fill="#181940"/>
<path d="M295.186 454.318C296.587 455.087 296.587 456.417 295.186 457.186C293.785 457.956 291.544 457.956 290.143 457.186C288.742 456.417 288.742 455.087 290.143 454.318C291.544 453.548 293.855 453.478 295.186 454.318Z" fill="#181940"/>
<path d="M308.355 446.69C309.756 447.459 309.756 448.789 308.355 449.558C306.954 450.328 304.712 450.328 303.311 449.558C301.91 448.789 301.91 447.459 303.311 446.69C304.712 445.92 306.954 445.92 308.355 446.69Z" fill="#181940"/>
<path d="M319.003 442.631C320.976 442.631 322.576 441.722 322.576 440.601C322.576 439.481 320.976 438.572 319.003 438.572C317.03 438.572 315.431 439.481 315.431 440.601C315.431 441.722 317.03 442.631 319.003 442.631Z" fill="#181940"/>
<path d="M334.623 431.576C336.024 432.346 336.024 433.675 334.623 434.445C333.222 435.214 330.98 435.214 329.579 434.445C328.178 433.675 328.178 432.346 329.579 431.576C330.98 430.736 333.292 430.736 334.623 431.576Z" fill="#181940"/>
<path d="M347.793 423.949C349.194 424.719 349.194 426.048 347.793 426.818C346.392 427.588 344.151 427.588 342.75 426.818C341.349 426.048 341.349 424.719 342.75 423.949C344.151 423.18 346.392 423.18 347.793 423.949Z" fill="#181940"/>
<path d="M360.961 416.393C362.362 417.163 362.362 418.493 360.961 419.262C359.56 420.032 357.319 420.032 355.918 419.262C354.517 418.493 354.517 417.163 355.918 416.393C357.319 415.554 359.56 415.554 360.961 416.393Z" fill="#181940"/>
<path d="M282.086 446.69C283.487 447.459 283.487 448.789 282.086 449.558C280.685 450.328 278.444 450.328 277.043 449.558C275.642 448.789 275.642 447.459 277.043 446.69C278.444 445.92 280.685 445.92 282.086 446.69Z" fill="#181940"/>
<path d="M295.186 439.134C296.587 439.903 296.587 441.233 295.186 442.002C293.785 442.772 291.544 442.772 290.143 442.002C288.742 441.233 288.742 439.903 290.143 439.134C291.544 438.294 293.855 438.294 295.186 439.134Z" fill="#181940"/>
<path d="M308.355 431.576C309.756 432.346 309.756 433.675 308.355 434.445C306.954 435.214 304.712 435.214 303.311 434.445C301.91 433.675 301.91 432.346 303.311 431.576C304.712 430.736 306.954 430.736 308.355 431.576Z" fill="#181940"/>
<path d="M321.525 423.949C322.926 424.719 322.926 426.048 321.525 426.818C320.124 427.588 317.882 427.588 316.481 426.818C315.08 426.048 315.08 424.719 316.481 423.949C317.882 423.18 320.124 423.18 321.525 423.949Z" fill="#181940"/>
<path d="M334.623 416.393C336.024 417.163 336.024 418.493 334.623 419.262C333.222 420.032 330.98 420.032 329.579 419.262C328.178 418.493 328.178 417.163 329.579 416.393C330.98 415.554 333.292 415.554 334.623 416.393Z" fill="#181940"/>
<path d="M347.793 408.836C349.194 409.605 349.194 410.935 347.793 411.705C346.392 412.474 344.151 412.474 342.75 411.705C341.349 410.935 341.349 409.605 342.75 408.836C344.151 407.996 346.392 407.996 347.793 408.836Z" fill="#181940"/>
<path d="M397.667 305.351C399.64 305.351 401.24 304.443 401.24 303.322C401.24 302.201 399.64 301.293 397.667 301.293C395.694 301.293 394.095 302.201 394.095 303.322C394.095 304.443 395.694 305.351 397.667 305.351Z" fill="#181940"/>
<path d="M413.289 294.294C414.69 295.063 414.69 296.393 413.289 297.163C411.888 297.932 409.646 297.932 408.245 297.163C406.844 296.393 406.844 295.063 408.245 294.294C409.716 293.454 411.958 293.454 413.289 294.294Z" fill="#181940"/>
<path d="M423.936 290.169C425.909 290.169 427.508 289.26 427.508 288.139C427.508 287.019 425.909 286.11 423.936 286.11C421.963 286.11 420.363 287.019 420.363 288.139C420.363 289.26 421.963 290.169 423.936 290.169Z" fill="#181940"/>
<path d="M437.106 282.611C439.079 282.611 440.678 281.703 440.678 280.582C440.678 279.461 439.079 278.553 437.106 278.553C435.133 278.553 433.533 279.461 433.533 280.582C433.533 281.703 435.133 282.611 437.106 282.611Z" fill="#181940"/>
<path d="M387.02 294.294C388.421 295.063 388.421 296.393 387.02 297.163C385.619 297.932 383.378 297.932 381.977 297.163C380.576 296.393 380.576 295.063 381.977 294.294C383.378 293.454 385.619 293.454 387.02 294.294Z" fill="#181940"/>
<path d="M400.189 286.667C401.59 287.437 401.59 288.766 400.189 289.536C398.788 290.306 396.546 290.306 395.145 289.536C393.744 288.766 393.744 287.437 395.145 286.667C396.546 285.897 398.788 285.897 400.189 286.667Z" fill="#181940"/>
<path d="M410.837 282.611C412.81 282.611 414.41 281.703 414.41 280.582C414.41 279.461 412.81 278.553 410.837 278.553C408.864 278.553 407.265 279.461 407.265 280.582C407.265 281.703 408.864 282.611 410.837 282.611Z" fill="#181940"/>
<path d="M426.458 271.554C427.859 272.323 427.859 273.653 426.458 274.422C425.057 275.192 422.815 275.192 421.414 274.422C420.013 273.653 420.013 272.323 421.414 271.554C422.815 270.714 425.057 270.714 426.458 271.554Z" fill="#181940"/>
<path d="M373.92 286.667C375.321 287.437 375.321 288.766 373.92 289.536C372.519 290.306 370.278 290.306 368.877 289.536C367.476 288.766 367.476 287.437 368.877 286.667C370.278 285.897 372.519 285.897 373.92 286.667Z" fill="#181940"/>
<path d="M384.498 282.611C386.471 282.611 388.071 281.703 388.071 280.582C388.071 279.461 386.471 278.553 384.498 278.553C382.525 278.553 380.926 279.461 380.926 280.582C380.926 281.703 382.525 282.611 384.498 282.611Z" fill="#181940"/>
<path d="M400.189 271.555C401.59 272.325 401.59 273.654 400.189 274.424C398.788 275.193 396.546 275.193 395.145 274.424C393.744 273.654 393.744 272.325 395.145 271.555C396.546 270.785 398.788 270.715 400.189 271.555Z" fill="#181940"/>
<path d="M410.837 267.427C412.81 267.427 414.41 266.519 414.41 265.398C414.41 264.278 412.81 263.369 410.837 263.369C408.864 263.369 407.265 264.278 407.265 265.398C407.265 266.519 408.864 267.427 410.837 267.427Z" fill="#181940"/>
<path d="M358.231 282.611C360.204 282.611 361.803 281.703 361.803 280.582C361.803 279.461 360.204 278.553 358.231 278.553C356.258 278.553 354.658 279.461 354.658 280.582C354.658 281.703 356.258 282.611 358.231 282.611Z" fill="#181940"/>
<path d="M373.92 271.554C375.321 272.323 375.321 273.653 373.92 274.422C372.519 275.192 370.278 275.192 368.877 274.422C367.476 273.653 367.476 272.323 368.877 271.554C370.278 270.714 372.519 270.714 373.92 271.554Z" fill="#181940"/>
<path d="M387.02 263.927C388.421 264.697 388.421 266.026 387.02 266.796C385.619 267.565 383.378 267.565 381.977 266.796C380.576 266.026 380.576 264.697 381.977 263.927C383.378 263.157 385.619 263.157 387.02 263.927Z" fill="#181940"/>
<path d="M400.189 256.371C401.59 257.141 401.59 258.47 400.189 259.24C398.788 260.009 396.546 260.009 395.145 259.24C393.744 258.47 393.744 257.141 395.145 256.371C396.546 255.531 398.788 255.531 400.189 256.371Z" fill="#181940"/>
<path d="M347.582 271.554C348.983 272.323 348.983 273.653 347.582 274.422C346.181 275.192 343.939 275.192 342.538 274.422C341.137 273.653 341.137 272.323 342.538 271.554C343.939 270.714 346.181 270.714 347.582 271.554Z" fill="#181940"/>
<path d="M360.752 263.927C362.153 264.697 362.153 266.026 360.752 266.796C359.352 267.565 357.11 267.565 355.709 266.796C354.308 266.026 354.308 264.697 355.709 263.927C357.11 263.157 359.352 263.157 360.752 263.927Z" fill="#181940"/>
<path d="M373.92 256.371C375.321 257.141 375.321 258.47 373.92 259.24C372.519 260.009 370.278 260.009 368.877 259.24C367.476 258.47 367.476 257.141 368.877 256.371C370.278 255.531 372.519 255.531 373.92 256.371Z" fill="#181940"/>
<path d="M387.02 248.744C388.421 249.513 388.421 250.843 387.02 251.613C385.619 252.382 383.378 252.382 381.977 251.613C380.576 250.843 380.576 249.513 381.977 248.744C383.378 247.974 385.619 247.974 387.02 248.744Z" fill="#181940"/>
<path d="M334.343 263.858C335.744 264.628 335.744 265.958 334.343 266.727C332.942 267.497 330.701 267.497 329.3 266.727C327.899 265.958 327.899 264.628 329.3 263.858C330.701 263.089 332.942 263.089 334.343 263.858Z" fill="#181940"/>
<path d="M344.99 259.73C346.964 259.73 348.563 258.822 348.563 257.701C348.563 256.58 346.964 255.672 344.99 255.672C343.017 255.672 341.418 256.58 341.418 257.701C341.418 258.822 343.017 259.73 344.99 259.73Z" fill="#181940"/>
<path d="M360.612 248.675C362.013 249.445 362.013 250.774 360.612 251.544C359.211 252.313 356.969 252.313 355.568 251.544C354.167 250.774 354.167 249.445 355.568 248.675C356.969 247.905 359.211 247.905 360.612 248.675Z" fill="#181940"/>
<path d="M373.78 241.118C375.181 241.887 375.181 243.217 373.78 243.987C372.379 244.756 370.137 244.756 368.736 243.987C367.335 243.217 367.335 241.887 368.736 241.118C370.137 240.348 372.379 240.348 373.78 241.118Z" fill="#181940"/>
<path d="M334.343 248.675C335.744 249.445 335.744 250.774 334.343 251.544C332.942 252.313 330.701 252.313 329.3 251.544C327.899 250.774 327.899 249.445 329.3 248.675C330.701 247.905 332.942 247.905 334.343 248.675Z" fill="#181940"/>
<path d="M347.512 241.118C348.913 241.887 348.913 243.217 347.512 243.987C346.111 244.756 343.87 244.756 342.469 243.987C341.068 243.217 341.068 241.887 342.469 241.118C343.87 240.348 346.111 240.348 347.512 241.118Z" fill="#181940"/>
<path d="M426.948 300.662C428.349 301.432 428.349 302.761 426.948 303.531C425.547 304.3 423.305 304.3 421.904 303.531C420.503 302.761 420.503 301.432 421.904 300.662C423.375 299.822 425.617 299.822 426.948 300.662Z" fill="#181940"/>
<path d="M440.118 293.035C441.519 293.805 441.519 295.134 440.118 295.904C438.717 296.674 436.475 296.674 435.074 295.904C433.673 295.134 433.673 293.805 435.074 293.035C436.475 292.266 438.717 292.266 440.118 293.035Z" fill="#181940"/>
<path d="M373.712 410.655C365.166 374.201 346.463 317.804 310.178 296.254C303.243 292.125 293.926 286.598 288.602 283.449L286.291 259.239C288.322 258.26 290.424 257.07 292.455 255.741L292.735 255.601L293.506 255.041C298.549 251.682 302.402 247.554 303.873 240.347L306.745 227.683L316.692 183.391C317.042 181.992 317.393 180.593 317.673 179.123L317.953 178.004L317.883 177.934C318.443 174.575 318.794 171.077 318.864 167.228C319.284 128.325 292.525 80.7448 259.042 60.9432C243.701 51.847 231.162 49.6779 220.305 54.296L218.764 54.7858L217.923 55.2056C216.662 55.7654 215.471 56.4651 214.28 57.2347L185.981 72.8381L184.44 75.9868L198.239 86.3424C197.819 89.2112 197.539 92.2199 197.539 95.4386C197.469 99.147 197.469 101.946 197.889 105.794L198.099 106.704L198.379 109.083C198.659 111.182 198.94 112.371 199.36 114.471L210.568 185.071C212.389 197.665 219.114 214.598 227.66 227.193L224.788 246.295C219.534 243.146 210.077 236.989 203.213 232.93C188.993 224.534 178.625 224.044 169.099 228.662L167.838 229.152L164.546 230.971C164.546 230.971 164.476 230.971 164.476 231.041L139.748 244.895L145.282 253.852C142.27 259.519 139.748 265.397 137.717 270.924C133.444 282.819 142.34 302.971 155.369 310.598L253.438 368.673L257.711 371.192L333.504 416.043C334.485 425.139 336.096 437.314 336.936 443.751C337.216 445.85 339.458 446.97 341.279 445.92L368.879 430.597C373.782 427.798 376.024 420.521 373.712 410.655Z" fill="#FFD5AD"/>
<path d="M371.19 424.509C362.644 388.055 343.941 331.659 307.655 310.108C300.72 305.98 291.404 300.452 286.08 297.303L225.347 330.749L220.374 293.455L248.464 275.822L281.807 268.895L283.698 259.099C288.742 255.741 289.582 251.822 291.053 244.616L304.223 241.677L314.17 197.386C314.52 195.986 314.87 194.587 315.15 193.117L315.431 191.998L315.361 191.928C315.921 188.569 316.271 185.071 316.341 181.222C316.832 142.319 290.003 94.7389 256.519 74.9373C241.179 65.8412 228.64 63.6721 217.782 68.2901L216.241 68.7799L215.401 69.1997C214.14 69.7595 212.949 70.4592 211.758 71.2289L183.458 86.8323L181.917 89.9809L195.717 100.337C195.296 103.205 195.016 106.214 195.016 109.433C194.946 113.141 194.946 115.94 195.367 119.788L195.577 120.698L195.857 123.077C196.137 125.176 196.417 126.366 196.838 128.465L208.045 199.065C209.867 211.659 216.591 228.592 225.137 241.187L222.265 260.289C217.012 257.14 207.555 250.983 200.69 246.925C186.47 238.528 176.103 238.038 166.576 242.656L165.315 243.146L162.023 244.895C162.023 244.895 161.953 244.895 161.953 244.965L137.226 258.75L142.76 267.706C139.748 273.373 137.226 279.251 135.194 284.779C130.921 296.674 139.818 316.825 152.847 324.452L250.915 382.527L255.188 385.046L330.981 429.897C331.962 438.993 333.223 429.547 334.064 435.915C334.344 438.014 336.585 439.133 338.407 438.084L358.511 436.614L359.351 427.378C364.255 424.649 373.501 434.375 371.19 424.509Z" fill="#FFEECC"/>
<path d="M339.808 448.93C338.968 448.93 338.127 448.72 337.287 448.37C335.676 447.53 334.555 445.991 334.275 444.172C333.504 438.084 332.033 426.679 330.982 417.723L154.038 312.837C140.099 304.581 130.642 282.96 135.265 270.015C137.297 264.278 139.678 258.89 142.27 253.922L136.036 243.917L168.118 226.284C178.906 221.036 190.534 222.436 204.544 230.762C208.256 232.931 212.669 235.73 216.802 238.319C218.904 239.648 221.005 240.978 222.826 242.097L224.928 227.893C216.662 215.439 209.867 198.576 207.976 185.561L196.488 113.422C196.208 112.092 195.998 111.043 195.788 109.433L195.367 106.425C194.877 102.017 194.877 98.8679 194.947 95.5093C194.947 92.9904 195.157 90.4015 195.507 87.6026L181.217 76.8272L184.019 71.0196L213.02 54.9964C214.14 54.2967 215.471 53.527 216.802 52.8973L217.433 52.5475L219.394 51.8478C230.742 47.0198 244.191 49.2588 260.233 58.7748C294.347 78.9963 321.736 127.696 321.315 167.369C321.315 170.378 321.035 173.456 320.615 176.675L320.755 176.745L320.195 179.754C319.914 181.223 319.564 182.692 319.214 184.092L306.395 240.908C304.574 249.794 299.32 254.272 294.907 257.211L294.206 257.771C292.315 258.96 290.634 259.94 289.023 260.849L291.054 281.98L311.509 294.155C347.514 315.496 366.567 369.024 376.234 410.166C378.686 420.662 376.374 429.408 370.07 432.907L342.47 448.23C341.7 448.65 340.719 448.93 339.808 448.93ZM143.391 245.806L148.294 253.712L147.594 255.042C144.862 260.15 142.34 265.817 140.169 271.765C136.316 282.47 144.792 301.292 156.7 308.359L335.886 414.504L336.026 415.764C337.006 424.79 338.618 437.035 339.458 443.402L367.548 428.289C371.611 425.98 373.082 419.332 371.19 411.286C363.485 378.4 345.062 320.044 308.847 298.563L286.081 285.059L283.419 257.771L285.03 257.001C286.991 256.021 288.953 254.902 290.914 253.642L291.825 253.013C297.359 249.304 300.021 245.526 301.211 239.858L314.03 182.902C314.381 181.503 314.731 180.173 314.941 178.704L315.081 177.585C315.641 173.946 315.992 170.588 315.992 167.299C316.412 129.305 290.214 82.6347 257.501 63.2529C243.001 54.6466 231.092 52.5475 221.145 56.7457L219.044 57.5853C217.713 58.2151 216.662 58.7748 215.541 59.4745L187.592 75.2179L200.901 85.2236L200.691 86.763C200.271 89.9816 200.061 92.7804 199.99 95.5093C199.92 99.3577 199.92 101.947 200.341 105.515L200.481 106.075L200.831 108.734C201.041 110.133 201.181 111.113 201.462 112.302L201.812 113.981L213.02 184.652C214.841 197.316 221.566 213.759 229.691 225.724L230.252 226.564L226.679 250.494L223.317 248.535C220.865 247.065 217.433 244.966 213.86 242.657C209.727 240.068 205.384 237.339 201.742 235.17C189.203 227.753 179.396 226.424 170.08 230.972L168.679 231.532L143.391 245.806Z" fill="#181940"/>
<path d="M343.38 427.659C334.834 391.205 316.131 334.808 279.846 313.257C272.911 309.129 263.594 303.602 258.271 300.453L255.959 276.243C263.034 272.675 271.44 267.567 273.541 257.351L276.413 244.686L286.36 200.395C286.711 198.996 287.061 197.596 287.341 196.127L287.621 195.007L287.551 194.938C288.112 191.579 288.462 188.08 288.532 184.232C288.952 145.328 262.193 97.7486 228.71 77.947C195.227 58.1453 167.697 73.5388 167.277 112.442C167.207 116.151 167.207 118.95 167.627 122.798L167.837 123.708L168.118 126.087C168.398 128.186 168.678 129.375 169.098 131.474L180.306 202.074C182.127 214.669 188.852 231.602 197.398 244.197L194.526 263.299C189.272 260.15 179.816 253.993 172.951 249.934C136.525 228.383 116.772 261.969 107.455 287.858C103.182 299.753 112.078 319.905 125.107 327.531L223.176 385.607L227.449 388.126L325.168 445.991C337.987 453.688 347.303 444.382 343.38 427.659Z" fill="#FFD5AD"/>
<path d="M333.713 451.379C330.631 451.379 327.199 450.33 323.696 448.301L123.706 329.771C109.766 321.514 100.31 299.893 104.933 286.949C111.027 270.156 121.955 248.745 139.818 242.308C150.325 238.529 161.883 240.348 174.212 247.625C177.854 249.794 182.267 252.593 186.4 255.182C188.572 256.512 190.673 257.841 192.494 259.031L194.596 244.757C186.33 232.302 179.535 215.439 177.644 202.424L166.156 130.285C165.876 129.026 165.666 127.906 165.455 126.367L165.035 123.358C164.545 118.95 164.545 115.801 164.615 112.443C164.825 92.6409 171.83 77.9471 184.299 70.95C196.767 63.953 212.949 65.6323 230.041 75.778C264.155 95.9995 291.544 144.699 291.123 184.372C291.123 187.311 290.843 190.39 290.423 193.608L290.563 193.678L289.933 196.757C289.652 198.156 289.302 199.626 288.952 201.095L276.133 257.981C274.031 268.267 266.396 273.794 258.761 277.783L260.792 298.914L281.247 311.089C317.252 332.43 336.305 385.957 346.042 427.099C348.354 436.895 346.532 445.152 341.139 449.14C338.827 450.61 336.375 451.379 333.713 451.379ZM150.815 245.666C147.593 245.666 144.511 246.226 141.569 247.276C125.598 253.013 115.511 272.955 109.837 288.768C105.984 299.473 114.46 318.295 126.368 325.362L326.428 443.822C331.051 446.551 335.114 446.901 337.916 444.872C341.489 442.213 342.68 435.846 340.858 428.219C333.153 395.333 314.73 336.978 278.515 315.497L255.819 301.992L253.157 274.704L254.768 273.934C262.123 270.296 269.128 265.678 270.949 256.861L283.768 199.906C284.119 198.506 284.469 197.177 284.679 195.777L284.889 194.658C285.449 191.019 285.8 187.661 285.8 184.372C286.22 146.378 260.022 99.7079 227.309 80.3261C211.968 71.2299 197.608 69.5506 186.82 75.5681C176.033 81.5856 170.009 94.74 169.799 112.582C169.728 116.431 169.728 119.02 170.149 122.588L170.289 123.148L170.639 125.807C170.849 127.206 170.989 128.186 171.27 129.375L171.62 131.055L182.828 201.725C184.649 214.389 191.374 230.832 199.499 242.727L200.06 243.567L196.487 267.497L193.125 265.538C190.603 264.068 187.241 261.899 183.598 259.59C179.535 257.001 175.192 254.273 171.55 252.103C164.265 247.835 157.33 245.666 150.815 245.666Z" fill="#181940"/>
<path d="M319.074 172.478L316.762 146.169L286.361 163.242L289.863 181.434L276.204 247.206L275.363 247.696L271.861 261.9L260.583 274.355L255.89 276.244L258.201 300.384L288.603 283.451L286.221 259.241L299.951 251.474L304.644 235.591L306.255 229.994L319.074 172.478Z" fill="#181940"/>
<path d="M336.165 401.069L365.446 383.717L373.291 405.408L374.412 419.052L372.03 429.408L341.279 445.921L344.291 433.186L338.196 406.317L336.165 401.069Z" fill="#181940"/>
<path d="M454.407 106.285C454.407 68.5706 426.108 22.2502 392.694 7.20653C380.296 1.6089 370.068 1.11911 361.452 5.80713L360.402 6.29692H360.332C360.261 6.36689 360.191 6.36689 360.121 6.43686L333.012 22.3901C331.752 23.0898 331.401 24.7691 332.312 25.9586L343.73 41.3521C343.38 68.2907 357.67 99.9173 378.124 121.398V144.069C378.124 148.267 382.467 153.025 385.199 151.765L403.482 143.509L410.066 155.264C410.767 156.523 412.448 157.013 413.709 156.244L438.016 142.109V142.04C448.103 136.442 454.407 124.057 454.407 106.285Z" fill="#FFD5AD"/>
<path d="M451.815 119.579C451.815 81.8645 423.515 35.5441 390.101 20.5005C377.703 14.9028 367.476 14.4131 358.86 19.1011L357.809 19.6608H357.739C357.669 19.7308 357.599 19.7308 357.529 19.8008L330.42 35.6841C329.159 36.3838 328.809 38.0631 329.719 39.2526L341.137 54.646C340.787 81.5847 355.077 113.211 375.531 134.692V157.363C375.531 161.561 390.452 152.255 393.184 150.995L400.889 156.803L408.174 149.946L425.196 149.596V139.59C435.213 133.923 451.815 137.351 451.815 119.579Z" fill="#FFEECC"/>
<path d="M412.308 159.252C411.818 159.252 411.397 159.182 410.907 159.042C409.506 158.692 408.385 157.783 407.685 156.523L402.221 146.867L386.11 154.144C384.428 154.914 382.467 154.634 380.576 153.445C377.984 151.765 375.392 147.987 375.392 144.069V122.448C354.307 99.9872 340.928 68.7104 340.998 42.1916L330.14 27.4978C329.3 26.3783 328.95 24.9089 329.23 23.5095C329.51 22.1101 330.421 20.9206 331.611 20.151L360.191 3.498C369.438 -1.53987 380.436 -1.12005 393.675 4.82743C427.368 19.941 456.929 67.381 456.929 106.285C456.929 123.707 451.115 136.862 440.468 143.579L439.137 144.348L414.83 158.482C414.129 158.972 413.219 159.252 412.308 159.252ZM404.462 140.15L412.238 154.004L436.615 139.87C446.352 134.413 451.746 122.448 451.746 106.285C451.746 69.1302 423.656 23.9993 391.573 9.58542C379.875 4.33764 370.419 3.84785 362.643 8.11604L361.522 8.67581L334.273 24.699L346.252 40.5823V41.4919C345.901 66.7513 359.421 98.168 379.945 119.719L380.646 120.489V144.208C380.646 146.867 383.238 149.526 384.148 149.526L404.462 140.15Z" fill="#181940"/>
<path d="M427.72 121.817C427.72 84.1033 399.42 37.7829 366.006 22.7393C341.139 11.544 320.685 22.8092 317.392 49.5379C313.96 77.9459 329.021 113.491 351.366 136.931V159.601C351.366 163.8 355.709 168.558 358.441 167.298L380.086 157.502C406.985 168.698 427.72 154.004 427.72 121.817Z" fill="#FFD5AD"/>
<path d="M357.46 170.096C356.339 170.096 355.148 169.746 353.958 168.977C351.366 167.298 348.774 163.519 348.774 159.601V137.98C325.448 113.07 311.508 76.7558 314.8 49.2575C316.481 35.6132 322.576 25.1177 332.102 19.7999C341.699 14.4122 354.098 14.6221 367.057 20.4296C400.75 35.5432 430.311 82.9832 430.311 121.887C430.311 138.89 424.637 152.044 414.41 158.901C405.233 164.989 393.115 165.548 380.086 160.44L359.491 169.747C358.861 169.956 358.16 170.096 357.46 170.096ZM347.723 21.0594C342.96 21.0594 338.477 22.1089 334.694 24.278C326.708 28.7561 321.525 37.8523 320.054 49.8172C316.832 76.1261 330.561 111.181 353.327 135.041L354.028 135.811V159.531C354.028 162.19 356.619 164.849 357.53 164.849L380.086 154.633L381.137 155.053C392.905 159.951 403.692 159.671 411.608 154.423C420.364 148.615 425.197 137 425.197 121.747C425.197 84.5925 397.108 39.4616 365.025 25.0477C358.931 22.3888 353.047 21.0594 347.723 21.0594Z" fill="#181940"/>
<path d="M422.886 92.9193L449.785 77.3159L454.408 91.24V114.68L451.816 127.135L432.133 146.517L416.231 154.003L427.72 130.843V106.284L422.886 92.9193Z" fill="#181940"/>
<path d="M374.342 105.653L369.159 67.7294C369.089 67.0996 369.019 66.4699 369.019 65.9101C369.019 60.8723 371.821 60.0326 377.565 63.3212C383.239 66.6099 386.041 70.7381 386.041 75.706C386.041 76.4057 385.97 76.9655 385.9 77.4553L380.717 109.362L374.342 105.653ZM377.495 114.68C382.468 117.548 384.92 121.816 384.92 127.554C384.92 133.292 382.468 134.691 377.495 131.822C372.521 128.953 370.069 124.685 370.069 118.948C370.069 113.21 372.591 111.811 377.495 114.68Z" fill="#FEEDCC"/>
<path d="M368.178 100.966L362.995 63.0419C362.925 62.4122 362.854 61.7824 362.854 61.2227C362.854 56.1848 365.727 55.3451 371.401 58.6337C377.075 61.9224 379.947 66.0506 379.947 71.0185C379.947 71.7182 379.876 72.278 379.806 72.7678L374.623 104.674L368.178 100.966ZM371.33 109.922C376.304 112.791 378.756 117.059 378.756 122.797C378.756 128.534 376.304 129.934 371.33 127.065C366.357 124.196 363.905 119.928 363.905 114.19C363.835 108.523 366.357 107.053 371.33 109.922Z" fill="#15100C"/>
<path d="M167.206 337.255C167.206 292.264 133.442 236.917 93.5841 219.005C78.8037 212.358 66.5451 211.728 56.318 217.326L55.0571 217.955H54.987C54.917 218.025 54.847 218.025 54.7069 218.095L22.3442 237.057C20.8732 237.897 20.4529 239.926 21.5036 241.256L35.0231 259.728C34.5327 291.914 51.6247 329.628 76.0718 355.237V382.316C76.0718 387.354 81.2555 393.021 84.4777 391.552L106.263 381.686L114.108 395.75C114.949 397.29 116.91 397.849 118.451 396.94L147.452 380.077V380.007C159.64 373.22 167.206 358.456 167.206 337.255Z" fill="#FFD5AD"/>
<path d="M164.054 353.139C164.054 308.148 130.291 252.801 90.4327 234.889C75.6524 228.242 63.3938 227.612 53.1666 233.209L51.9057 233.839H51.8357C51.7656 233.909 51.6956 233.909 51.5555 233.979L19.1928 252.941C17.7218 253.781 17.3015 255.81 18.3522 257.139L31.9417 275.542C31.4514 307.728 48.5434 345.442 72.9905 371.051V398.13C72.9905 403.168 90.783 392.042 94.0753 390.503L103.252 397.43L111.938 389.243L132.252 388.824V376.929C144.3 370.281 164.054 374.34 164.054 353.139Z" fill="#FFEECC"/>
<path d="M116.981 400.439C116.42 400.439 115.86 400.369 115.299 400.229C113.688 399.809 112.287 398.689 111.447 397.22L104.932 385.675L85.7388 394.351C83.7073 395.261 81.3957 394.981 79.1542 393.512C76.072 391.552 72.9198 387.004 72.9198 382.316V356.497C47.7722 329.698 31.801 292.334 31.8711 260.778L18.912 243.215C17.9313 241.816 17.511 240.066 17.8612 238.457C18.2115 236.778 19.2622 235.378 20.7333 234.469L54.8471 214.597C65.8448 208.58 78.944 209.07 94.8451 216.206C135.053 234.259 170.358 290.865 170.358 337.255C170.358 358.037 163.423 373.78 150.744 381.756L149.203 382.736L120.203 399.599C119.152 400.159 118.031 400.439 116.981 400.439ZM107.594 377.628L116.841 394.141L145.981 377.208C157.609 370.631 164.054 356.427 164.054 337.115C164.054 292.824 130.5 238.877 92.2533 221.734C78.3136 215.507 67.0357 214.877 57.7192 219.985L56.3882 220.685L23.8855 239.787L38.1755 258.748V259.798C37.7552 289.955 53.9365 327.459 78.3836 353.139L79.2242 354.048V382.316C79.2242 385.465 82.3064 388.614 83.4271 388.684L107.594 377.628Z" fill="#181940"/>
<path d="M135.265 355.727C135.265 310.736 101.501 255.389 61.6435 237.477C31.9427 224.112 7.56565 237.547 3.64291 269.453C-0.489987 303.319 17.5126 345.721 44.2013 373.709V400.788C44.2013 405.825 49.3849 411.493 52.6072 410.024L78.3852 398.339C110.538 411.703 135.265 394.21 135.265 355.727Z" fill="#FFD5AD"/>
<path d="M51.4857 413.382C50.1548 413.382 48.6838 412.962 47.2828 412.053C44.2006 410.094 41.0484 405.546 41.0484 400.858V375.038C13.1689 345.301 -3.43273 301.919 0.560067 269.173C2.52144 252.87 9.87659 240.345 21.1545 233.978C32.6425 227.541 47.4229 227.751 62.9037 234.678C103.112 252.73 138.417 309.336 138.417 355.727C138.417 376.088 131.692 391.761 119.433 399.878C108.506 407.155 94.0055 407.785 78.5247 401.697L53.9375 412.892C53.1669 413.242 52.3263 413.382 51.4857 413.382ZM39.8576 235.517C34.1136 235.517 28.8599 236.777 24.3067 239.366C14.78 244.754 8.54566 255.599 6.79443 269.873C2.94174 301.29 19.2632 343.132 46.5122 371.61L47.3528 372.52V400.788C47.3528 403.936 50.435 407.155 51.5558 407.155L78.4546 394.98L79.7155 395.47C93.7253 401.277 106.614 400.997 116.071 394.7C126.508 387.703 132.252 373.849 132.252 355.727C132.252 311.435 98.6988 257.488 60.452 240.345C53.237 237.127 46.2321 235.517 39.8576 235.517Z" fill="#181940"/>
<path d="M129.59 321.373L161.673 302.69L167.206 319.273V347.262L164.054 362.095L140.588 385.256L121.604 394.212L135.264 366.573V337.256L129.59 321.373Z" fill="#181940"/>
<path d="M67.0368 342.291C73.131 345.789 76.2132 351.107 76.2132 358.174C76.2132 365.241 73.131 366.99 67.0368 363.492C60.9425 359.993 57.8604 354.675 57.8604 347.608C57.8604 340.541 60.8725 338.792 67.0368 342.291ZM62.4836 330.745V311.014L69.9088 315.352C70.9595 321.929 73.131 326.197 76.5634 328.087C81.1166 330.675 83.3582 327.107 83.3582 317.311C83.3582 302.337 80.4862 293.241 74.8122 289.953C70.3991 287.434 68.1576 289.813 68.1576 297.16C68.1576 299.049 68.3677 301.988 68.788 305.906L60.7324 298.489C60.1019 294.781 59.8217 292.192 59.8217 290.652C59.8217 280.087 65.7759 278.198 77.6842 285.055C92.8148 293.801 100.38 306.536 100.38 323.329C100.38 330.256 98.4888 335.084 94.7762 337.812C91.0636 340.541 86.5805 340.471 81.3268 337.463C77.7543 335.433 74.1818 331.795 70.3991 326.687V335.433L62.4836 330.745Z" fill="#FEEDCC"/>
<path d="M60.5924 336.415C66.6867 339.913 69.7689 345.231 69.7689 352.298C69.7689 359.365 66.6867 361.114 60.5924 357.616C54.4982 354.117 51.416 348.799 51.416 341.732C51.416 334.665 54.4982 332.916 60.5924 336.415ZM56.0393 324.869V305.138L63.4645 309.476C64.5152 316.053 66.6867 320.321 70.1191 322.211C74.6723 324.799 76.9139 321.231 76.9139 311.435C76.9139 296.461 74.0419 287.365 68.3679 284.077C63.9548 281.558 61.7132 283.937 61.7132 291.284C61.7132 293.173 61.9234 296.112 62.3437 300.03L54.288 292.613C53.6576 288.905 53.3774 286.316 53.3774 284.776C53.3774 274.211 59.3316 272.322 71.2399 279.179C86.3705 287.925 93.9358 300.66 93.9358 317.453C93.9358 324.38 92.0445 329.208 88.3319 331.936C84.6193 334.665 80.1361 334.595 74.8824 331.587C71.3099 329.557 67.7374 325.919 63.9548 320.811V329.557L56.0393 324.869Z" fill="#15100C"/>
</g>
<defs>
<clipPath id="clip0">
<rect width="457" height="473" fill="white"/>
</clipPath>
</defs>
</svg>
